<?xml version="1.0" encoding="UTF-8"?>
<svg version="1.1" xmlns="http://www.w3.org/2000/svg" width="1912" height="687">
<path d="M0 0 C630.96 0 1261.92 0 1912 0 C1912 226.71 1912 453.42 1912 687 C1281.04 687 650.08 687 0 687 C0 460.29 0 233.58 0 0 Z " fill="#FEFEFE" transform="translate(0,0)"/>
<path d="M0 0 C1.75739948 -0.00533146 3.51479438 -0.01240059 5.27218068 -0.02104706 C10.07939911 -0.03962189 14.88630838 -0.0333872 19.69353938 -0.02289402 C24.88658096 -0.01588733 30.07955998 -0.03191114 35.27258301 -0.04489136 C45.43760607 -0.06651228 55.60251709 -0.06640928 65.76755558 -0.05826581 C74.03139982 -0.05196087 82.29521143 -0.05310739 90.55905533 -0.05953789 C92.32464548 -0.06089037 92.32464548 -0.06089037 94.12590412 -0.06227018 C96.51725475 -0.06412142 98.90860537 -0.06598398 101.29995598 -0.06785773 C123.71534572 -0.08442971 146.13067248 -0.07572226 168.54605843 -0.05887216 C189.04198732 -0.04417732 209.53776958 -0.05880168 230.03367959 -0.08764232 C251.09188769 -0.11705294 272.15002815 -0.12800363 293.20825589 -0.11846012 C295.59132265 -0.11743759 297.97438942 -0.11644298 300.35745621 -0.11547661 C301.52989306 -0.11500022 302.70232991 -0.11452383 303.91029515 -0.114033 C312.16033475 -0.11187099 320.41031017 -0.12166168 328.66033554 -0.13624763 C338.7201317 -0.15378549 348.77974099 -0.15363268 358.83952986 -0.13089598 C363.96930626 -0.11976687 369.09875359 -0.11656127 374.22851562 -0.13519669 C378.93028283 -0.15205709 383.63143537 -0.14557529 388.33316316 -0.1209799 C390.02820656 -0.11611442 391.72330006 -0.1195634 393.41830133 -0.13246734 C406.25444888 -0.22308688 418.32023679 1.20724232 428.01004028 10.6318512 C435.43100599 19.46371655 435.93111817 30.40907434 436.20877075 41.45069885 C436.24636946 42.7530076 436.28396816 44.05531635 436.32270622 45.397089 C436.78366241 62.49687469 436.73846625 79.60496617 436.72639704 96.7095027 C436.72381173 101.54280109 436.7262275 106.37609787 436.7277832 111.20939636 C436.72958626 119.30936532 436.72724707 127.40932506 436.72244263 135.5092926 C436.71699254 144.80367372 436.71877568 154.0980329 436.72426903 163.3924135 C436.7288406 171.45787216 436.72943144 179.52332432 436.72683036 187.58878386 C436.72529106 192.36893486 436.72500813 197.14907563 436.72836685 201.92922592 C436.74846257 235.7885937 436.74846257 235.7885937 436.27127075 250.34132385 C436.24930696 251.24024542 436.22734318 252.13916698 436.20471382 253.0653286 C435.72913943 264.50211065 432.41398024 276.96857979 424.27957153 285.3896637 C420.5517631 288.2702063 416.76623298 289.57652938 412.24635792 290.679492 C411.54151325 290.85200337 410.83666858 291.02451475 410.11046498 291.20225374 C402.88699978 292.85088434 395.83300197 293.06434956 388.43598938 293.00241089 C386.98342216 293.0048796 385.53085708 293.00910517 384.07829934 293.01490563 C380.13503246 293.0256664 376.19219673 293.01185122 372.24897206 292.99358523 C367.97473261 292.97823356 363.7005248 292.98626228 359.42626953 292.99127197 C351.05991128 292.99747653 342.69371954 292.98254826 334.3273932 292.96054635 C324.52415465 292.93567636 314.72094524 292.93293343 304.91767982 292.93114259 C287.3599706 292.92726919 269.80233511 292.90484845 252.24465942 292.87135315 C235.34491674 292.83914065 218.44521271 292.81772021 201.54544067 292.80982971 C200.51067162 292.80934422 199.47590258 292.80885873 198.40977689 292.80835853 C194.24578076 292.80642813 190.08178462 292.80451604 185.91778846 292.80264242 C168.67178339 292.79455281 151.4257856 292.77734299 134.17978883 292.75900626 C130.2998438 292.75490981 126.4198987 292.75117917 122.53995299 292.7477839 C48.90253206 292.68266513 48.90253206 292.68266513 14.33161032 292.18029249 C11.80768515 292.1438728 9.28371917 292.1101591 6.7597183 292.07943022 C3.34998626 292.03616999 -0.05929304 291.98041355 -3.46876526 291.92034912 C-4.92781747 291.90415097 -4.92781747 291.90415097 -6.41634548 291.88762558 C-17.80783973 291.6494507 -28.30671706 289.66679777 -37.22042847 282.1396637 C-37.94230347 281.2734137 -38.66417847 280.4071637 -39.40792847 279.5146637 C-39.83718628 279.01321838 -40.26644409 278.51177307 -40.70870972 277.99513245 C-48.66435638 267.97430316 -47.82975491 255.88957506 -47.76437378 243.75904846 C-47.76516578 241.8636465 -47.7672665 239.96824471 -47.77056885 238.07284546 C-47.77568823 232.9389419 -47.76218498 227.80524006 -47.74504185 222.67136884 C-47.72991026 217.25853833 -47.73117715 211.84570944 -47.7303772 206.43286133 C-47.72668612 197.31792309 -47.71174654 188.20306018 -47.68917847 179.08815002 C-47.66053582 167.49846453 -47.64997263 155.90884033 -47.64549637 144.31912327 C-47.64146419 134.25183925 -47.62895582 124.18456781 -47.6151495 114.11729312 C-47.61110947 110.93764764 -47.608154 107.75800257 -47.60535431 104.57835579 C-47.59229194 92.10059764 -47.54793383 79.6235931 -47.43226814 67.14633036 C-47.41606986 65.39493111 -47.40083693 63.64352266 -47.38657951 61.89210653 C-47.34510146 56.94725182 -47.28250955 52.00357226 -47.18576193 47.05947673 C-47.15931811 45.58750731 -47.13897639 44.11541192 -47.12558985 42.64326584 C-47.00340419 30.37146741 -45.0847622 19.67466219 -36.40792847 10.5146637 C-25.9260424 0.58566832 -13.6890293 -0.07275999 0 0 Z M-36.22042847 15.3271637 C-46.03533535 27.30581141 -44.69827401 44.22031889 -44.63839722 58.8506012 C-44.63774885 60.79849233 -44.6379049 62.74638387 -44.63879395 64.6942749 C-44.63815743 69.9865838 -44.624093 75.27877297 -44.60617447 80.57104874 C-44.59539928 83.89867731 -44.58733274 87.2263017 -44.58013916 90.55393982 C-44.55400613 102.42453439 -44.51502733 114.29502317 -44.46554565 126.1655426 C-44.42184418 136.66521764 -44.39555467 147.16481911 -44.38156128 157.66456604 C-44.36514267 169.85093884 -44.3289664 182.03708678 -44.27101994 194.22333527 C-44.24011362 200.78791297 -44.21693329 207.35229214 -44.2131958 213.91694641 C-44.20899946 220.12494014 -44.18075346 226.33238148 -44.13468552 232.54020119 C-44.12173255 234.82427575 -44.11714443 237.10841611 -44.12172318 239.39252281 C-44.14353292 253.3283251 -44.02926948 266.54555383 -34.90402222 278.0302887 C-31.78644578 281.12344548 -28.28390734 283.475538 -24.40792847 285.5146637 C-23.76452515 285.86246887 -23.12112183 286.21027405 -22.45822144 286.56861877 C-15.96283056 289.65498899 -9.87000094 290.00354621 -2.76708984 289.89764214 C-1.58648405 289.88076603 -1.58648405 289.88076603 -0.38202763 289.86354899 C0.4344251 289.85154185 1.25087782 289.8395347 2.09207153 289.8271637 C3.69936391 289.80659964 5.30665868 289.78622231 6.91395569 289.76602364 C15.9188775 289.6461858 24.92152873 289.49512294 33.92434692 289.26512146 C69.24222753 288.38239548 104.5471224 288.42327362 139.87277222 288.50062943 C150.75071543 288.52443767 161.62865987 288.53712659 172.50662231 288.54832458 C176.25906378 288.55232079 180.01150517 288.55638984 183.76394653 288.56048393 C185.16838622 288.56201278 185.16838622 288.56201278 186.60119843 288.5635725 C197.14519643 288.57520382 207.68919097 288.58911825 218.23318481 288.60401917 C219.19218012 288.6053716 220.15117543 288.60672403 221.1392312 288.60811745 C236.79446948 288.63045856 252.4496872 288.66036748 268.10490906 288.69198658 C284.28153189 288.72437503 300.45814372 288.74523507 316.63479519 288.75625885 C326.5649696 288.76345694 336.49503724 288.7800711 346.42517239 288.80905961 C353.2017598 288.8280578 359.97830469 288.83614488 366.75491852 288.83565463 C370.65723717 288.83571755 374.55938812 288.84065306 378.46166801 288.85882187 C382.03652709 288.87537041 385.61111961 288.87790077 389.18600476 288.8695731 C391.08104619 288.86873309 392.97607672 288.88266854 394.87106228 288.89724553 C406.02655929 288.84492533 415.94312613 286.68114594 424.31472778 278.91700745 C428.12788264 274.8040468 429.93061262 270.84882125 431.59207153 265.5146637 C431.77922226 264.9406098 431.96637299 264.3665559 432.15919495 263.77510643 C432.81040685 260.37453623 432.7219746 256.9837175 432.70559692 253.53507996 C432.70574578 252.72482971 432.70589464 251.91457946 432.70604801 251.07977617 C432.7053528 248.3609428 432.69750689 245.64217675 432.68972778 242.9233551 C432.68780877 240.97506244 432.68634489 239.02676928 432.68530273 237.07847595 C432.68213886 232.87913224 432.67586548 228.67980857 432.66723633 224.48047256 C432.65371513 217.8309316 432.64781928 211.18139732 432.64309692 204.53184509 C432.63104506 189.20267787 432.60905324 173.87352788 432.58686829 158.54437256 C432.56665841 144.52152098 432.548584 130.49867544 432.53865337 116.47581232 C432.53369119 109.87635112 432.52386032 103.27692107 432.51022339 96.67747235 C432.50271805 92.55341096 432.49943888 88.42935372 432.49725723 84.30528641 C432.49539854 82.40511826 432.49182465 80.50495083 432.48632431 78.60478973 C432.45988218 69.16538995 432.55948984 59.82076329 433.3523407 50.4090786 C434.47051387 36.9086997 433.51992821 22.37513875 424.59207153 11.5146637 C415.51933075 2.5289516 403.36852413 3.08261707 391.51835632 3.13371277 C389.77292222 3.13025357 388.02749031 3.12548725 386.28206295 3.11953104 C381.49877776 3.10702727 376.71567253 3.11318864 371.93238676 3.12248969 C366.76869395 3.12928242 361.6050319 3.1187978 356.44134521 3.11054993 C346.3305399 3.09721253 336.21980141 3.10009046 326.10899348 3.10878785 C317.89084763 3.11556432 309.67272051 3.11648127 301.45457268 3.1132164 C299.69976593 3.11252685 299.69976593 3.11252685 297.90950854 3.11182337 C295.53288865 3.11086419 293.15626877 3.10989155 290.77964889 3.1089056 C268.49551236 3.10035159 246.21141285 3.11018583 223.92728239 3.1263067 C204.81056269 3.13970812 185.69389766 3.13738324 166.57717896 3.12355042 C144.37406465 3.10749179 122.1709828 3.10117741 99.9678635 3.11038721 C97.59970439 3.11134285 95.23154527 3.11228596 92.86338615 3.1132164 C91.69822952 3.11367923 90.53307289 3.11414205 89.33260848 3.1146189 C81.12578443 3.11720807 72.91898097 3.11283933 64.71216011 3.10577774 C54.70862879 3.09735934 44.70516809 3.09965001 34.70164485 3.11561997 C29.59865746 3.12349832 24.49578777 3.12660166 19.39280128 3.11667252 C14.71900333 3.1077161 10.04543187 3.11267417 5.37165438 3.12860517 C3.68333362 3.13194897 1.99499361 3.13026795 0.30668528 3.12297781 C-13.89467451 3.06637283 -26.05341601 4.47951442 -36.22042847 15.3271637 Z " fill="#303030" transform="translate(773.4079284667969,216.48533630371094)"/>
<path d="M0 0 C3.57871671 2.44200454 6.8045312 5.0792294 10 8 C10.75539063 8.64066406 11.51078125 9.28132813 12.2890625 9.94140625 C24.29982541 20.81713143 32.84468244 38.91913122 34 55 C34.10312871 58.33516896 34.09581185 61.66369022 34.0625 65 C34.05798828 65.87011719 34.05347656 66.74023438 34.04882812 67.63671875 C34.0371736 69.75784293 34.01924357 71.8789311 34 74 C36.46657232 71.59162267 38.92173611 69.17192657 41.375 66.75 C42.42300781 65.72712891 42.42300781 65.72712891 43.4921875 64.68359375 C44.1625 64.01972656 44.8328125 63.35585937 45.5234375 62.671875 C46.14138184 62.0644043 46.75932617 61.45693359 47.39599609 60.83105469 C50.47926474 57.31134162 51.2583436 54.65018479 51 50 C50.07316406 49.79503906 49.14632813 49.59007812 48.19140625 49.37890625 C46.99386719 49.10949219 45.79632812 48.84007812 44.5625 48.5625 C43.36753906 48.29566406 42.17257812 48.02882812 40.94140625 47.75390625 C38 47 38 47 37 46 C36.6875 43.625 36.6875 43.625 37 41 C39.20477417 38.82620626 40.57806771 38.05753622 43.6640625 37.63671875 C50.32420449 37.75094282 56.5284772 38.39643683 63 40 C63 40.99 63 41.98 63 43 C58.05 43 53.1 43 48 43 C50.31 43.66 52.62 44.32 55 45 C57 47 57 47 57.29296875 48.8125 C56.91253293 56.70302075 52.43013521 60.68996257 47 66 C46.29746094 66.72574219 45.59492187 67.45148438 44.87109375 68.19921875 C41.82744893 71.3262511 38.83870676 74.1209089 35.3125 76.6875 C31.14461045 80.14816847 29.97957049 84.70448511 28.23046875 89.69140625 C22.44911486 105.23682448 8.99098435 117.99801085 -5.390625 125.8515625 C-11.08221265 128.34003692 -16.4772833 129.97618333 -22.6171875 130.9765625 C-37.33552223 133.39183636 -46.39340511 137.61622442 -57.79589844 147.1953125 C-61.24544493 150.01975287 -64.89450579 152.5327027 -68.5625 155.0625 C-69.96200906 156.04274273 -71.36044658 157.02451707 -72.7578125 158.0078125 C-73.45293945 158.49668945 -74.14806641 158.98556641 -74.86425781 159.48925781 C-80.85704774 163.72832778 -86.78974293 168.05203668 -92.73388672 172.35888672 C-96.486448 175.07648173 -100.24343419 177.78794473 -104 180.5 C-105.50002146 181.58330362 -107.00002146 182.66663696 -108.5 183.75 C-111.5 185.91666667 -114.5 188.08333333 -117.5 190.25 C-118.24233887 190.78616943 -118.98467773 191.32233887 -119.74951172 191.87475586 C-121.25100203 192.95909313 -122.75262987 194.04323999 -124.25439453 195.12719727 C-127.98273848 197.81863342 -131.70870865 200.5132324 -135.4296875 203.21484375 C-144.07445487 209.48534402 -152.77710528 215.66288536 -161.53857422 221.76928711 C-167.06470885 225.62710425 -172.54652837 229.54024256 -178 233.5 C-186.74985624 239.84976894 -195.59869162 246.05214693 -204.46777344 252.23388672 C-208.64917329 255.15022364 -212.82424843 258.07558443 -217 261 C-218.6614431 262.16278218 -220.32290146 263.32554257 -221.984375 264.48828125 C-225.37108087 266.85884296 -228.75633361 269.23146146 -232.140625 271.60546875 C-259.32453199 290.66967555 -259.32453199 290.66967555 -272.0625 298.9375 C-272.75303467 299.38633545 -273.44356934 299.8351709 -274.1550293 300.29760742 C-287.03957947 308.6012631 -287.03957947 308.6012631 -292 308 C-292 307.34 -292 306.68 -292 306 C-292.99 306 -293.98 306 -295 306 C-291.13768536 297.0683974 -281.50419407 290.74955996 -274 285 C-274.66 284.67 -275.32 284.34 -276 284 C-276 283.34 -276 282.68 -276 282 C-274.75539217 281.32332002 -273.50403104 280.65905281 -272.25 280 C-271.55390625 279.62875 -270.8578125 279.2575 -270.140625 278.875 C-268 278 -268 278 -264 278 C-264.309375 278.763125 -264.61875 279.52625 -264.9375 280.3125 C-265.67893593 282.18789677 -266.36228217 284.08684652 -267 286 C-253.47305984 277.02736679 -240.01484703 267.96006047 -226.61962891 258.79199219 C-224.14779553 257.10110151 -221.67390879 255.41326858 -219.19921875 253.7265625 C-209.54263809 247.13999889 -199.93273495 240.48859188 -190.34277344 233.80541992 C-184.84594002 229.97565136 -179.33914458 226.16160457 -173.8125 222.375 C-165.35441389 216.57619628 -156.95978052 210.68748061 -148.56445312 204.79833984 C-144.37826879 201.86275018 -140.18902323 198.93153649 -136 196 C-131.03435462 192.52458046 -126.06904574 189.04868566 -121.10546875 185.5703125 C-112.18635281 179.32134081 -103.25598579 173.08905222 -94.3125 166.875 C-86.21973002 161.25067591 -78.14662647 155.60020728 -70.10546875 149.90234375 C-67.1369459 147.79954959 -64.15871892 145.71119992 -61.17578125 143.62890625 C-59.98734619 142.79697754 -59.98734619 142.79697754 -58.77490234 141.94824219 C-57.24451081 140.87725584 -55.71234757 139.80879568 -54.17822266 138.74316406 C-52.43435807 137.52043062 -50.71435576 136.26377415 -49 135 C-49 134.67 -49 134.34 -49 134 C-50.2375 133.7525 -51.475 133.505 -52.75 133.25 C-68.55631999 129.64980855 -81.87031572 122.77488534 -94 112 C-95.06154297 111.06220703 -95.06154297 111.06220703 -96.14453125 110.10546875 C-109.36440113 97.6944628 -115.69757543 81.54091529 -116.375 63.6875 C-116.24787854 56.09653284 -114.24995226 49.20603267 -112 42 C-111.67644531 40.92234375 -111.35289062 39.8446875 -111.01953125 38.734375 C-105.57576767 21.40320932 -95.8006736 8.67834529 -79.74804688 -0.25292969 C-74.27535181 -3.0921979 -68.67369383 -5.59309557 -63 -8 C-61.91589844 -8.47824219 -60.83179688 -8.95648438 -59.71484375 -9.44921875 C-40.36031434 -17.03662024 -16.98212877 -10.50076945 0 0 Z M-44 -9 C-44 -8.34 -44 -7.68 -44 -7 C-44.99 -7.33 -45.98 -7.66 -47 -8 C-57.92657803 -8.66499635 -68.06931087 -3.90284835 -76.8203125 2.4375 C-79.34417147 4.2467179 -81.97079197 5.82627344 -84.625 7.4375 C-96.69715513 15.21733331 -106.1403975 28.99457633 -109.51220703 43.15039062 C-109.96032815 45.51166349 -110.34037839 47.87181225 -110.6875 50.25 C-110.8127002 51.09409424 -110.93790039 51.93818848 -111.06689453 52.80786133 C-113.27207882 68.41366549 -112.41000598 84.77678899 -103 98 C-100.18856038 101.54209624 -97.1911503 104.79812315 -94 108 C-93.34644531 108.67675781 -92.69289063 109.35351562 -92.01953125 110.05078125 C-80.8605603 120.8212387 -67.2073997 127.54455333 -52 130 C-51.06027344 130.21398437 -50.12054688 130.42796875 -49.15234375 130.6484375 C-41.53810773 131.6820442 -36.55890138 127.51130531 -30.74584961 123.17919922 C-29.24667853 122.03529831 -27.75154107 120.88609382 -26.26025391 119.73193359 C-23.33843145 117.49306899 -20.35081881 115.35493421 -17.35473633 113.21704102 C-13.55235479 110.50212478 -9.77699622 107.75007098 -6 105 C-5.20239258 104.41927734 -4.40478516 103.83855469 -3.58300781 103.24023438 C15.80276052 91.53247773 15.80276052 91.53247773 29.625 75.625 C31.84223552 54.19172327 27.23210179 33.97438751 13.6640625 17.09375 C3.86811321 5.49376867 -7.67107538 -1.16042943 -22 -6 C-22.77730469 -6.31839844 -23.55460937 -6.63679687 -24.35546875 -6.96484375 C-30.82382328 -9.52155219 -37.12160074 -9.28704294 -44 -9 Z " fill="#2D2D2D" transform="translate(472,170)"/>
<path d="M0 0 C0.85086685 -0.00511093 1.7017337 -0.01022186 2.5783844 -0.01548767 C5.38964888 -0.0293821 8.20066817 -0.02842704 11.01196289 -0.02612305 C12.96725048 -0.03001 14.92253723 -0.03434467 16.87782288 -0.03910828 C20.9758681 -0.04657013 25.07382716 -0.04627941 29.171875 -0.04101562 C34.42218208 -0.03522047 39.67213645 -0.05215332 44.92238522 -0.0753603 C48.96043457 -0.0900953 52.99839894 -0.09096966 57.03647041 -0.08785057 C58.97215028 -0.08836388 60.90783489 -0.09360344 62.84348869 -0.10366249 C65.55083993 -0.11600525 68.25750344 -0.10924829 70.96484375 -0.09765625 C71.76344818 -0.10529999 72.56205261 -0.11294373 73.38485718 -0.12081909 C77.95299076 -0.07760848 80.90784188 0.45126178 84.54711914 3.2746582 C88.07089423 8.04196215 86.88023843 14.87015183 86.86279297 20.54638672 C86.85963437 22.70176836 86.88310341 24.85577434 86.90844727 27.01098633 C86.9107207 28.38923982 86.91142355 29.76749697 86.91040039 31.14575195 C86.91338135 32.39283936 86.9163623 33.63992676 86.91943359 34.92480469 C86.51398155 38.57280963 85.81548448 40.41251016 83.54711914 43.2746582 C79.76526021 45.95378546 75.53875641 45.56306925 71.09423828 45.54931641 C70.24337143 45.55442734 69.39250458 45.55953827 68.51585388 45.56480408 C65.7045894 45.57869851 62.89357012 45.57774345 60.08227539 45.57543945 C58.1269878 45.57932641 56.17170106 45.58366108 54.21641541 45.58842468 C50.11837019 45.59588653 46.02041112 45.59559582 41.92236328 45.59033203 C36.6720562 45.58453688 31.42210183 45.60146973 26.17185307 45.6246767 C22.13380371 45.6394117 18.09583935 45.64028607 14.05776787 45.63716698 C12.122088 45.63768029 10.18640339 45.64291984 8.25074959 45.6529789 C5.54339835 45.66532165 2.83673484 45.65856469 0.12939453 45.64697266 C-0.6692099 45.65461639 -1.46781433 45.66226013 -2.2906189 45.6701355 C-6.85875248 45.62692489 -9.8136036 45.09805462 -13.45288086 42.2746582 C-16.97665595 37.50735425 -15.78600014 30.67916458 -15.76855469 25.00292969 C-15.76539609 22.84754805 -15.78886513 20.69354207 -15.81420898 18.53833008 C-15.81648242 17.16007659 -15.81718527 15.78181944 -15.81616211 14.40356445 C-15.81914307 13.15647705 -15.82212402 11.90938965 -15.82519531 10.62451172 C-15.41974327 6.97650678 -14.7212462 5.13680625 -12.45288086 2.2746582 C-8.67102193 -0.40446906 -4.44451813 -0.01375285 0 0 Z " fill="#E8E8F0" transform="translate(1807.452880859375,14.725341796875)"/>
<path d="M0 0 C1.03374756 0.00676758 2.06749512 0.01353516 3.13256836 0.02050781 C19.52377606 0.2343332 35.10513002 1.46318936 50.8125 6.25 C53.86702317 6.94933692 56.75321364 7.33157993 59.875 7.5 C87.82792744 10.51316797 120.27116426 40.39591874 137.40234375 61.34375 C171.83579755 106.07780963 185.11826105 167.11209725 179.3515625 222.72265625 C178.7721245 226.96926642 177.86751572 231.09874248 176.8125 235.25 C176.61914062 236.05050781 176.42578125 236.85101563 176.2265625 237.67578125 C172.8305689 251.49034781 167.80639229 264.36978565 161.8125 277.25 C161.30565674 278.34634766 161.30565674 278.34634766 160.78857422 279.46484375 C151.22824344 299.92881038 138.4330028 318.91355749 122.8125 335.25 C122.008125 336.095625 121.20375 336.94125 120.375 337.8125 C119.529375 338.616875 118.68375 339.42125 117.8125 340.25 C117.1421875 340.89195312 116.471875 341.53390625 115.78125 342.1953125 C98.36753605 358.42172777 78.69321833 368.40888482 55.6875 374.3125 C54.19959961 374.69764771 54.19959961 374.69764771 52.68164062 375.09057617 C44.11875358 377.26093445 35.54645706 378.93041301 26.8125 380.25 C25.70003906 380.43304687 24.58757812 380.61609375 23.44140625 380.8046875 C-12.10789564 385.16703456 -51.14373412 372.40134562 -79.2421875 350.671875 C-90.07352554 341.76546972 -100.10820096 331.93262495 -109.1875 321.25 C-110.33025391 319.94095703 -110.33025391 319.94095703 -111.49609375 318.60546875 C-118.09548647 310.9147568 -123.83481045 302.85284611 -129.1875 294.25 C-129.57292969 293.6317334 -129.95835938 293.0134668 -130.35546875 292.37646484 C-155.77301623 250.96451356 -160.78612439 198.5053711 -152.1875 151.25 C-151.97867187 150.06760742 -151.97867187 150.06760742 -151.765625 148.86132812 C-143.42361854 103.09615381 -115.32197531 54.38907221 -76.81640625 27.703125 C-75.60772685 26.88400421 -74.39813928 26.06622135 -73.1875 25.25 C-72.16527344 24.54359375 -71.14304687 23.8371875 -70.08984375 23.109375 C-57.65552776 14.95888142 -43.53321026 9.55557245 -29.5 4.8125 C-28.46033081 4.46034424 -28.46033081 4.46034424 -27.3996582 4.10107422 C-18.2768184 1.14580349 -9.58415957 -0.09222418 0 0 Z M-13.93359375 6.69921875 C-15.39708245 8.1768211 -15.39708245 8.1768211 -15.1875 10.25 C-15.8475 10.25 -16.5075 10.25 -17.1875 10.25 C-17.5175 8.93 -17.8475 7.61 -18.1875 6.25 C-24.52447977 6.82942292 -30.16716393 8.27864778 -36.1875 10.3125 C-37.10450684 10.62123047 -38.02151367 10.92996094 -38.96630859 11.24804688 C-47.44846891 14.19297503 -55.36738993 17.85483762 -63.1875 22.25 C-64.18007812 22.80300781 -65.17265625 23.35601562 -66.1953125 23.92578125 C-73.7309728 28.4235614 -79.92494019 34.18050562 -86.1875 40.25 C-87.20050413 41.21095511 -88.21352494 42.17189263 -89.2265625 43.1328125 C-96.12832265 49.7686496 -102.10216373 56.88111584 -107.8671875 64.51513672 C-109.15282521 66.20443804 -110.46171782 67.87224581 -111.78125 69.53515625 C-130.82922321 93.63361775 -143.1443526 120.07525333 -149.1875 150.25 C-149.35121094 151.00941895 -149.51492188 151.76883789 -149.68359375 152.55126953 C-159.20957118 197.57332195 -151.56560901 252.20785868 -127.1875 291.25 C-123.39001452 297.0640288 -119.32702122 302.67643537 -115.1875 308.25 C-114.74905762 308.84683594 -114.31061523 309.44367188 -113.85888672 310.05859375 C-88.75042702 344.14195113 -52.85930298 369.99987057 -10.38671875 376.62890625 C5.84678889 378.77169279 21.98912437 376.97149999 38.10546875 374.63818359 C40.32676614 374.31965339 42.55349636 374.03922977 44.78125 373.76953125 C79.87348482 368.41716057 112.83454493 346.18110026 133.8125 318.25 C140.40013771 309.26266239 146.29469699 299.92493082 151.8125 290.25 C152.24852539 289.49783203 152.68455078 288.74566406 153.13378906 287.97070312 C180.10515776 241.00563325 183.12376107 184.9790544 169.28515625 133.23046875 C158.26657748 94.78412824 138.22114732 58.0364961 105 34.5 C104.3488623 34.02804199 103.69772461 33.55608398 103.02685547 33.06982422 C100.99121594 31.64341471 100.99121594 31.64341471 97.8125 30.25 C94.90460165 30.81539514 94.90460165 30.81539514 92.8125 32.25 C92.75642578 31.13431641 92.75642578 31.13431641 92.69921875 29.99609375 C91.46123673 26.16216705 89.0147372 25.08317742 85.625 23.3125 C84.99787109 22.97186523 84.37074219 22.63123047 83.72460938 22.28027344 C64.63231264 12.10470869 44.90898703 8.02369384 23.8125 4.25 C22.79833008 4.06679199 21.78416016 3.88358398 20.73925781 3.69482422 C11.46559051 2.28536294 -6.33011998 0.38850562 -13.93359375 6.69921875 Z " fill="#303030" transform="translate(1384.1875,177.75)"/>
<path d="M0 0 C1.06490662 -0.00960754 2.12981323 -0.01921509 3.22698975 -0.02911377 C4.38732727 -0.03336365 5.54766479 -0.03761353 6.74316406 -0.04199219 C7.92847717 -0.04769226 9.11379028 -0.05339233 10.33502197 -0.05926514 C12.85029197 -0.06873394 15.36557449 -0.07525654 17.88085938 -0.07910156 C21.72841129 -0.08879069 25.57542556 -0.11979047 29.42285156 -0.15136719 C31.86295255 -0.15789849 34.30305736 -0.16314846 36.74316406 -0.16699219 C38.47152496 -0.18551239 38.47152496 -0.18551239 40.23480225 -0.20440674 C41.85107513 -0.19990509 41.85107513 -0.19990509 43.5 -0.1953125 C44.9177774 -0.20078094 44.9177774 -0.20078094 46.36419678 -0.20635986 C49.56426059 0.23832116 51.41083788 1.26427457 54.00878906 3.16113281 C57.30179402 8.10064025 56.34156963 14.00005704 56.32446289 19.78466797 C56.32130993 22.02133216 56.34474161 24.25666405 56.37011719 26.49316406 C56.37239108 27.92154782 56.37309326 29.34993511 56.37207031 30.77832031 C56.37505127 32.07366699 56.37803223 33.36901367 56.38110352 34.70361328 C55.98148323 38.41470996 55.32420556 40.26088957 53.00878906 43.16113281 C49.85871104 45.14213289 47.36412848 45.42558705 43.67700195 45.4675293 C42.61232193 45.48351669 41.54764191 45.49950409 40.45069885 45.51597595 C39.30584518 45.52133865 38.16099152 45.52670135 36.98144531 45.53222656 C35.80037704 45.54125504 34.61930878 45.55028351 33.40245056 45.55958557 C30.90512631 45.57409033 28.40776403 45.58297536 25.91040039 45.58666992 C22.08903141 45.59857753 18.26927095 45.64777438 14.44824219 45.69824219 C12.02181778 45.70770504 9.59538345 45.71494073 7.16894531 45.71972656 C6.02611588 45.73925888 4.88328644 45.7587912 3.70582581 45.77891541 C-5.12007904 45.72868143 -5.12007904 45.72868143 -8.1887207 42.7512207 C-12.08215368 37.15655316 -11.28814862 31.20846559 -11.34130859 24.61303711 C-11.35785282 23.1086478 -11.38512345 21.60433661 -11.42333984 20.1003418 C-11.47827302 17.9261824 -11.50000464 15.75386259 -11.51464844 13.57910156 C-11.53446777 12.27739014 -11.55428711 10.97567871 -11.57470703 9.63452148 C-10.84934267 5.31663081 -9.30465813 3.91018758 -5.99121094 1.16113281 C-4.32113271 -0.50894542 -2.2941426 0.01662884 0 0 Z " fill="#6B67DB" transform="translate(1720.9912109375,14.8388671875)"/>
<path d="M0 0 C0.71996781 -0.00265183 1.43993563 -0.00530365 2.18172064 -0.00803584 C4.60691642 -0.01572731 7.03206155 -0.01628795 9.45726871 -0.01688576 C11.20862188 -0.02090049 12.95997411 -0.02533873 14.71132523 -0.03016531 C19.53425963 -0.04213566 24.35718402 -0.04778035 29.18013036 -0.05234647 C34.37804628 -0.05830089 39.57595023 -0.06991122 44.77385807 -0.08063698 C57.33298263 -0.10516584 69.89211116 -0.11978946 82.45125231 -0.13269705 C85.99855924 -0.13640882 89.54586577 -0.14038207 93.09317231 -0.14444971 C115.12097678 -0.16968761 137.14878186 -0.19174099 159.1765976 -0.20417786 C164.27959985 -0.20710756 169.38260208 -0.21006922 174.48560429 -0.21308327 C175.75393414 -0.21382932 177.02226399 -0.21457537 178.32902808 -0.21534403 C198.87065487 -0.22799494 219.41219505 -0.26121408 239.95378136 -0.3028851 C261.04339278 -0.34531708 282.13295988 -0.36887442 303.22261387 -0.37409842 C315.06361137 -0.37751124 326.90447356 -0.38925127 338.74542904 -0.42220116 C348.83099101 -0.45022021 358.91638994 -0.46119281 369.00198781 -0.4500057 C374.14590829 -0.44482374 379.28948743 -0.44767601 384.43335819 -0.47247124 C389.14833134 -0.49500879 393.86271881 -0.49418884 398.57770253 -0.47526737 C400.27767649 -0.47247367 401.97769056 -0.47803065 403.6776002 -0.4930803 C416.53218446 -0.59986803 428.60300528 0.81375678 438.30909061 10.25420189 C445.73005632 19.08606725 446.2301685 30.03142504 446.50782108 41.07304955 C446.54541979 42.3753583 446.58301849 43.67766705 446.62175655 45.0194397 C447.08271274 62.11922539 447.03751658 79.22731687 447.02544737 96.33185339 C447.02286206 101.16515178 447.02527783 105.99844856 447.02683353 110.83174706 C447.02863659 118.93171601 447.02629741 127.03167575 447.02149296 135.1316433 C447.01604287 144.42602441 447.01782601 153.7203836 447.02331936 163.01476419 C447.02789094 171.08022285 447.02848177 179.14567501 447.02588069 187.21113455 C447.02434139 191.99128555 447.02405846 196.77142632 447.02741718 201.55157661 C447.04773481 235.46937275 447.04773481 235.46937275 446.50782108 250.08867455 C446.47747839 251.00435392 446.4471357 251.9200333 446.41587353 252.86346054 C446.16204465 258.4938569 445.24984345 263.66516805 443.89112186 269.13701439 C443.56112186 268.47701439 443.23112186 267.81701439 442.89112186 267.13701439 C442.23112186 267.13701439 441.57112186 267.13701439 440.89112186 267.13701439 C441.0537804 266.3165538 441.21643894 265.49609322 441.38402653 264.65077019 C441.95169617 260.71728399 442.02361319 256.87983224 442.00464725 252.91692162 C442.00479611 252.10496252 442.00494497 251.29300342 442.00509834 250.4564395 C442.00440556 247.74381797 441.99657075 245.03126472 441.98877811 242.31865501 C441.98685825 240.37006735 441.98539477 238.42147919 441.98435307 236.47289085 C441.98119367 232.27903898 441.97492709 228.08520727 441.96628666 223.89136314 C441.9527466 217.25006322 441.94686578 210.60876997 441.94214725 203.96745872 C441.93010565 188.66039127 441.90809974 173.35334116 441.88591862 158.04628563 C441.86570578 144.03646637 441.84763494 130.02665315 441.8377037 116.01682234 C441.83274268 109.42572281 441.82291393 102.83465449 441.80927372 96.24356747 C441.80176864 92.12606234 441.7984893 88.00856139 441.79630756 83.89105034 C441.79444892 81.99410561 441.79087514 80.09716159 441.78537464 78.20022392 C441.75891249 68.7701168 441.85953411 59.43497831 442.65139103 50.03254509 C443.771445 36.50424506 442.79166305 22.04454036 433.89112186 11.13701439 C424.63941662 3.11886984 413.29487917 3.70657476 401.81740665 3.75606346 C400.07197256 3.75260427 398.32654064 3.74783794 396.58111328 3.74188173 C391.79782809 3.72937796 387.01472286 3.73553933 382.23143709 3.74484038 C377.06774428 3.75163311 371.90408223 3.74114849 366.74039555 3.73290062 C356.62959023 3.71956323 346.51885174 3.72244116 336.40804381 3.73113854 C328.18989797 3.73791502 319.97177084 3.73883196 311.75362301 3.73556709 C309.99881626 3.73487754 309.99881626 3.73487754 308.20855887 3.73417407 C305.83193898 3.73321488 303.4553191 3.73224224 301.07869922 3.73125629 C278.79456269 3.72270228 256.51046318 3.73253652 234.22633272 3.74865739 C215.10961303 3.76205882 195.99294799 3.75973393 176.87622929 3.74590111 C154.67311498 3.72984248 132.47003313 3.72352811 110.26691383 3.7327379 C107.89875472 3.73369354 105.53059561 3.73463665 103.16243649 3.73556709 C101.99727985 3.73602992 100.83212322 3.73649275 99.63165881 3.7369696 C91.42483476 3.73955876 83.21803131 3.73519002 75.01121044 3.72812843 C65.00767912 3.71971003 55.00421842 3.72200071 45.00069518 3.73797067 C39.89770779 3.74584902 34.7948381 3.74895235 29.69185162 3.73902321 C25.01805366 3.73006679 20.3444822 3.73502487 15.67070471 3.75095586 C13.98238395 3.75429966 12.29404395 3.75261865 10.60573561 3.7453285 C-2.25959564 3.69404878 -13.95462992 4.57445766 -23.83153439 13.73467064 C-30.61317074 21.0495069 -31.74734488 29.5261914 -33.10887814 39.13701439 C-34.90181352 37.07724528 -36.03117585 35.72457139 -36.39403439 32.98076439 C-35.49252994 23.49124389 -31.77706086 15.2142601 -24.79637814 8.63701439 C-17.24004219 2.49749143 -9.62823403 0.01745594 0 0 Z " fill="#3A3A3A" transform="translate(763.1088781356812,216.8629856109619)"/>
<path d="M0 0 C1.55972244 -0.01652729 3.11937014 -0.04377525 4.67871094 -0.08203125 C6.92894727 -0.13696166 9.17740503 -0.1586989 11.42822266 -0.17333984 C12.12111389 -0.19600922 12.81400513 -0.21867859 13.52789307 -0.24203491 C17.47326591 -0.22492213 18.96081115 0.23214478 22.01708984 2.8203125 C23.04817871 4.07255615 23.04817871 4.07255615 24.10009766 5.35009766 C24.59509766 5.84509766 24.59509766 5.84509766 25.10009766 6.35009766 C25.39156963 10.97970567 25.41416707 15.61209438 25.45019531 20.25 C25.4667226 21.80972244 25.49397056 23.36937014 25.53222656 24.92871094 C25.58715698 27.17894727 25.60889421 29.42740503 25.62353516 31.67822266 C25.64620453 32.37111389 25.6688739 33.06400513 25.69223022 33.77789307 C25.67511744 37.72326591 25.21805053 39.21081115 22.62988281 42.26708984 C21.79505371 42.95448242 20.96022461 43.641875 20.10009766 44.35009766 C19.77009766 44.68009766 19.44009766 45.01009766 19.10009766 45.35009766 C14.47048964 45.64156963 9.83810093 45.66416707 5.20019531 45.70019531 C3.64047287 45.7167226 2.08082517 45.74397056 0.52148438 45.78222656 C-1.72875195 45.83715698 -3.97720972 45.85889421 -6.22802734 45.87353516 C-6.92091858 45.89620453 -7.61380981 45.9188739 -8.32769775 45.94223022 C-12.27307059 45.92511744 -13.76061583 45.46805053 -16.81689453 42.87988281 C-17.50428711 42.04505371 -18.19167969 41.21022461 -18.89990234 40.35009766 C-19.22990234 40.02009766 -19.55990234 39.69009766 -19.89990234 39.35009766 C-20.19137432 34.72048964 -20.21397176 30.08810093 -20.25 25.45019531 C-20.26652729 23.89047287 -20.29377525 22.33082517 -20.33203125 20.77148438 C-20.38696166 18.52124805 -20.4086989 16.27279028 -20.42333984 14.02197266 C-20.44600922 13.32908142 -20.46867859 12.63619019 -20.49203491 11.92230225 C-20.47492213 7.97692941 -20.01785522 6.48938417 -17.4296875 3.43310547 C-16.5948584 2.74571289 -15.7600293 2.05832031 -14.89990234 1.35009766 C-12.26907761 -1.28072707 -3.69685023 0.02871792 0 0 Z " fill="#DDDCFD" transform="translate(751.89990234375,19.64990234375)"/>
<path d="M0 0 C2.15538164 0.0031586 4.30938762 -0.02031044 6.46459961 -0.0456543 C7.8428531 -0.04792773 9.22111025 -0.04863058 10.59936523 -0.04760742 C11.84645264 -0.05058838 13.09354004 -0.05356934 14.37841797 -0.05664062 C18.02642291 0.34881142 19.86612344 1.04730848 22.72827148 3.31567383 C26.25204658 8.08297778 25.06139077 14.91116746 25.04394531 20.58740234 C25.04078671 22.74278399 25.06425575 24.89678996 25.08959961 27.05200195 C25.09187305 28.43025544 25.09257589 29.8085126 25.09155273 31.18676758 C25.09453369 32.43385498 25.09751465 33.68094238 25.10058594 34.96582031 C24.69513389 38.61382525 23.99663683 40.45352578 21.72827148 43.31567383 C16.96096753 46.83944892 10.13277786 45.64879311 4.45654297 45.63134766 C2.30116133 45.62818905 0.14715535 45.6516581 -2.00805664 45.67700195 C-3.38631013 45.67927539 -4.76456728 45.67997824 -6.14282227 45.67895508 C-7.38990967 45.68193604 -8.63699707 45.68491699 -9.921875 45.68798828 C-13.56987994 45.28253623 -15.40958047 44.58403917 -18.27172852 42.31567383 C-21.79550361 37.54836988 -20.6048478 30.7201802 -20.58740234 25.04394531 C-20.58424374 22.88856367 -20.60771278 20.73455769 -20.63305664 18.5793457 C-20.63533008 17.20109222 -20.63603292 15.82283506 -20.63500977 14.44458008 C-20.63799072 13.19749268 -20.64097168 11.95040527 -20.64404297 10.66552734 C-20.23859092 7.0175224 -19.54009386 5.17782187 -17.27172852 2.31567383 C-12.50442457 -1.20810126 -5.67623489 -0.01744546 0 0 Z " fill="#E6E6EE" transform="translate(34.271728515625,14.684326171875)"/>
<path d="M0 0 C3.57871671 2.44200454 6.8045312 5.0792294 10 8 C10.75539063 8.64066406 11.51078125 9.28132813 12.2890625 9.94140625 C24.29982541 20.81713143 32.84468244 38.91913122 34 55 C34.10312871 58.33516896 34.09581185 61.66369022 34.0625 65 C34.05798828 65.87011719 34.05347656 66.74023438 34.04882812 67.63671875 C34.0371736 69.75784293 34.01924357 71.8789311 34 74 C36.46657232 71.59162267 38.92173611 69.17192657 41.375 66.75 C42.42300781 65.72712891 42.42300781 65.72712891 43.4921875 64.68359375 C44.1625 64.01972656 44.8328125 63.35585937 45.5234375 62.671875 C46.14138184 62.0644043 46.75932617 61.45693359 47.39599609 60.83105469 C50.47926474 57.31134162 51.2583436 54.65018479 51 50 C50.07316406 49.79503906 49.14632812 49.59007812 48.19140625 49.37890625 C46.99386719 49.10949219 45.79632812 48.84007812 44.5625 48.5625 C43.36753906 48.29566406 42.17257812 48.02882812 40.94140625 47.75390625 C38 47 38 47 37 46 C36.6875 43.625 36.6875 43.625 37 41 C39.20477417 38.82620626 40.57806771 38.05753622 43.6640625 37.63671875 C50.32420449 37.75094282 56.5284772 38.39643683 63 40 C63 40.99 63 41.98 63 43 C58.05 43 53.1 43 48 43 C50.31 43.66 52.62 44.32 55 45 C57 47 57 47 57.29296875 48.8125 C56.91253293 56.70302075 52.43013521 60.68996257 47 66 C46.29746094 66.72574219 45.59492187 67.45148438 44.87109375 68.19921875 C41.82744893 71.3262511 38.83870676 74.1209089 35.3125 76.6875 C31.14461045 80.14816847 29.97957049 84.70448511 28.23046875 89.69140625 C22.56687872 104.92017055 8.82224013 118.98779453 -5.8828125 125.95703125 C-12.68244619 128.89838341 -19.65453958 130.9975607 -27 132 C-26.73730469 130.10253906 -26.73730469 130.10253906 -26 128 C-24.34863281 127.03027344 -24.34863281 127.03027344 -22.203125 126.359375 C-21.41534668 126.09785645 -20.62756836 125.83633789 -19.81591797 125.56689453 C-18.96916504 125.29731934 -18.12241211 125.02774414 -17.25 124.75 C4.65584771 117.20205584 16.24860268 104.06597196 27 84 C26.10796875 84.69867188 25.2159375 85.39734375 24.296875 86.1171875 C23.11472354 87.03663863 21.93242408 87.95589949 20.75 88.875 C20.16347656 89.33519531 19.57695312 89.79539062 18.97265625 90.26953125 C16.09070923 92.50384972 13.37428833 94.5467174 10 96 C12.87089508 88.95325753 19.79090623 84.77390831 25.671875 80.37890625 C28.48788938 77.50146874 28.75551912 75.96262753 29 72 C29.06703125 71.16082031 29.1340625 70.32164062 29.203125 69.45703125 C29.60853297 46.58526515 23.02148421 27.42043275 7.05078125 10.8671875 C-1.08695117 2.90058177 -11.39694132 -1.3499942 -22 -5 C-23.16789062 -5.46212891 -23.16789062 -5.46212891 -24.359375 -5.93359375 C-30.75720022 -8.37364023 -37.20148588 -8.69527526 -44 -9 C-44 -8.34 -44 -7.68 -44 -7 C-44.62003906 -7.06960937 -45.24007812 -7.13921875 -45.87890625 -7.2109375 C-57.22546511 -7.90461359 -67.75776625 -3.14536672 -76.82421875 3.4453125 C-79.31965898 5.22840983 -81.92564813 6.74698193 -84.5625 8.3125 C-96.64811449 16.07220513 -104.90998688 29.54677163 -108.48046875 43.4140625 C-111.95852951 60.72591383 -113.32415587 79.77069849 -103.796875 95.4765625 C-100.56144389 100.02023315 -96.93319293 104.05319741 -93 108 C-92.41992188 108.60328125 -91.83984375 109.2065625 -91.2421875 109.828125 C-84.26622119 116.52255007 -74.20171769 122.93276077 -65 126 C-65 126.99 -65 127.98 -65 129 C-69.42750306 128.41022004 -72.88134579 126.65784374 -76.6875 124.4375 C-77.30254395 124.08107422 -77.91758789 123.72464844 -78.55126953 123.35742188 C-84.12150125 120.05503912 -89.15562233 116.30329535 -94 112 C-94.70769531 111.37480469 -95.41539062 110.74960937 -96.14453125 110.10546875 C-109.36440113 97.6944628 -115.69757543 81.54091529 -116.375 63.6875 C-116.24787854 56.09653284 -114.24995226 49.20603267 -112 42 C-111.51466797 40.38351563 -111.51466797 40.38351563 -111.01953125 38.734375 C-105.57576767 21.40320932 -95.8006736 8.67834529 -79.74804688 -0.25292969 C-74.27535181 -3.0921979 -68.67369383 -5.59309557 -63 -8 C-61.91589844 -8.47824219 -60.83179688 -8.95648438 -59.71484375 -9.44921875 C-40.36031434 -17.03662024 -16.98212877 -10.50076945 0 0 Z " fill="#303030" transform="translate(472,170)"/>
<path d="M0 0 C-6.62302468 5.1921912 -13.28781816 10.303736 -20.1875 15.125 C-21.25355469 15.87007813 -22.31960938 16.61515625 -23.41796875 17.3828125 C-26 19 -26 19 -28 19 C-28.020625 19.72058594 -28.04125 20.44117188 -28.0625 21.18359375 C-29.43838352 25.31697715 -32.4766406 26.83095669 -36 29.0625 C-37.47481102 30.03516667 -38.94874207 31.00916868 -40.421875 31.984375 C-41.18306641 32.48259766 -41.94425781 32.98082031 -42.72851562 33.49414062 C-46.29107993 35.8559094 -49.76877181 38.3330878 -53.25 40.8125 C-54.6754072 41.82214287 -56.10119631 42.83124676 -57.52734375 43.83984375 C-58.61764893 44.61110596 -58.61764893 44.61110596 -59.72998047 45.39794922 C-66.28243769 50.02230115 -72.86149247 54.6089267 -79.43408203 59.20458984 C-82.00811075 61.00567521 -84.5804718 62.80911771 -87.15234375 64.61328125 C-114.29622822 83.65130444 -114.29622822 83.65130444 -127.0625 91.9375 C-128.098302 92.61075317 -128.098302 92.61075317 -129.1550293 93.29760742 C-142.03957947 101.6012631 -142.03957947 101.6012631 -147 101 C-147 100.34 -147 99.68 -147 99 C-147.99 99 -148.98 99 -150 99 C-146.13768536 90.0683974 -136.50419407 83.74955996 -129 78 C-129.66 77.67 -130.32 77.34 -131 77 C-131 76.34 -131 75.68 -131 75 C-129.75539217 74.32332002 -128.50403104 73.65905281 -127.25 73 C-126.55390625 72.62875 -125.8578125 72.2575 -125.140625 71.875 C-123 71 -123 71 -119 71 C-119.309375 71.763125 -119.61875 72.52625 -119.9375 73.3125 C-120.67893593 75.18789677 -121.36228217 77.08684652 -122 79 C-108.47305984 70.02736679 -95.01484703 60.96006047 -81.61962891 51.79199219 C-79.14779553 50.10110151 -76.67390879 48.41326858 -74.19921875 46.7265625 C-64.54700489 40.1429774 -54.94097911 33.49523057 -45.35595703 26.81420898 C-39.09942936 22.45447816 -32.82737107 18.11891002 -26.52734375 13.82226562 C-23.34312844 11.64271364 -20.1953419 9.42590581 -17.0859375 7.140625 C-16.45115479 6.67640137 -15.81637207 6.21217773 -15.16235352 5.73388672 C-13.96967734 4.8577569 -12.78221257 3.97446616 -11.60131836 3.08251953 C-7.96812467 0.41550131 -4.40119565 -2.20059782 0 0 Z " fill="#333333" transform="translate(327,377)"/>
<path d="M0 0 C10.08805273 0.8967158 19.26898319 4.18692848 26 12 C31.90276281 20.79247355 32.35843391 30.66539936 32.61669922 40.93603516 C32.65429792 42.23834391 32.69189663 43.54065266 32.73063469 44.88242531 C33.19159088 61.982211 33.14639471 79.09030248 33.1343255 96.194839 C33.1317402 101.02813739 33.13415596 105.86143417 33.13571167 110.69473267 C33.13751473 118.79470162 33.13517554 126.89466136 33.13037109 134.99462891 C33.12492101 144.28901002 33.12670414 153.58336921 33.1321975 162.8777498 C33.13676907 170.94320846 33.1373599 179.00866062 33.13475883 187.07412016 C33.13321952 191.85427116 33.13293659 196.63441193 33.13629532 201.41456223 C33.15661294 235.33235837 33.15661294 235.33235837 32.61669922 249.95166016 C32.58635653 250.86733953 32.55601383 251.78301891 32.52475166 252.72644615 C32.27092278 258.35684251 31.35872159 263.52815366 30 269 C29.67 268.34 29.34 267.68 29 267 C28.34 267 27.68 267 27 267 C27.16265854 266.17953941 27.32531708 265.35907883 27.49290466 264.5137558 C28.06057431 260.5802696 28.13249133 256.74281785 28.11352539 252.77990723 C28.11374868 251.56196858 28.11374868 251.56196858 28.11397648 250.31942511 C28.11328369 247.60680358 28.10544889 244.89425034 28.09765625 242.18164062 C28.09573639 240.23305296 28.09427291 238.2844648 28.0932312 236.33587646 C28.09007181 232.14202459 28.08380522 227.94819288 28.07516479 223.75434875 C28.06162473 217.11304883 28.05574391 210.47175558 28.05102539 203.83044434 C28.03898379 188.52337688 28.01697787 173.21632677 27.99479675 157.90927124 C27.97458392 143.89945198 27.95651307 129.88963876 27.94658184 115.87980795 C27.94162081 109.28870843 27.93179207 102.6976401 27.91815186 96.10655308 C27.91064678 91.98904796 27.90736744 87.871547 27.9051857 83.75403595 C27.90332706 81.85709122 27.89975327 79.9601472 27.89425278 78.06320953 C27.86779063 68.63310241 27.96841224 59.29796392 28.76026917 49.8955307 C29.88032314 36.36723067 28.90054119 21.90752597 20 11 C12.30370317 4.32987608 2.97121968 3.54800236 -6.81640625 3.48828125 C-7.91347397 3.47033005 -9.01054169 3.45237885 -10.14085388 3.43388367 C-13.61469785 3.38008119 -17.08840678 3.34598117 -20.5625 3.3125 C-22.93035721 3.27930044 -25.29819667 3.24480837 -27.66601562 3.20898438 C-33.44388924 3.12437219 -39.221781 3.05589612 -45 3 C-45 2.67 -45 2.34 -45 2 C-22.725 1.505 -22.725 1.505 0 1 C0 0.67 0 0.34 0 0 Z " fill="#333333" transform="translate(1177,217)"/>
<path d="M0 0 C1.03374756 0.00676758 2.06749512 0.01353516 3.13256836 0.02050781 C19.52377606 0.2343332 35.10513002 1.46318936 50.8125 6.25 C53.86702317 6.94933692 56.75321364 7.33157993 59.875 7.5 C78.47034033 9.50447284 97.0064668 24.43793078 110.8125 36.25 C110.4825 37.24 110.1525 38.23 109.8125 39.25 C109.00425781 38.66089844 108.19601562 38.07179687 107.36328125 37.46484375 C106.29464844 36.71332031 105.22601562 35.96179688 104.125 35.1875 C103.06925781 34.43339844 102.01351563 33.67929688 100.92578125 32.90234375 C97.96992457 30.97163819 97.96992457 30.97163819 94.91796875 31.50390625 C94.22316406 31.75011719 93.52835938 31.99632812 92.8125 32.25 C92.55339844 31.14978516 92.55339844 31.14978516 92.2890625 30.02734375 C90.15296897 26.00945354 87.17414053 24.79179823 83.1875 22.8125 C82.03580322 22.22891724 82.03580322 22.22891724 80.86083984 21.63354492 C58.80297615 10.67712711 32.33672726 3.71308574 7.625 4 C6.767854 4.00676758 5.91070801 4.01353516 5.02758789 4.02050781 C-3.80002592 3.96840508 -3.80002592 3.96840508 -12.1875 6.25 C-13.21261443 7.56412259 -14.21590787 8.89582626 -15.1875 10.25 C-15.8475 10.25 -16.5075 10.25 -17.1875 10.25 C-17.6825 8.765 -17.6825 8.765 -18.1875 7.25 C-24.52447977 7.82942292 -30.16716393 9.27864778 -36.1875 11.3125 C-37.10450684 11.62123047 -38.02151367 11.92996094 -38.96630859 12.24804688 C-47.44846891 15.19297503 -55.36738993 18.85483762 -63.1875 23.25 C-64.18007812 23.80300781 -65.17265625 24.35601562 -66.1953125 24.92578125 C-73.12622841 29.06260998 -78.94565955 34.235365 -84.71435547 39.82373047 C-86.13315238 41.19738171 -87.5682435 42.55414192 -89.00390625 43.91015625 C-95.63250326 50.31245692 -101.29492639 57.16691051 -106.85107422 64.49902344 C-108.14466719 66.19388072 -109.45994175 67.86886037 -110.78515625 69.5390625 C-115.60710965 75.64582182 -120.04004406 81.88026043 -124.14501953 88.49414062 C-126.2908043 91.94116816 -128.59043588 95.12886464 -131.1875 98.25 C-132.1875 95.25 -132.1875 95.25 -130.81640625 92.09765625 C-130.14007096 90.8292111 -129.45034798 89.56784665 -128.75 88.3125 C-128.38382568 87.64371826 -128.01765137 86.97493652 -127.64038086 86.28588867 C-119.56183702 71.75281141 -109.60169741 58.32532639 -98.1875 46.25 C-97.44113281 45.43917969 -96.69476562 44.62835938 -95.92578125 43.79296875 C-89.05482712 36.58130615 -81.3711387 30.86114008 -73.1875 25.25 C-71.64642578 24.18265625 -71.64642578 24.18265625 -70.07421875 23.09375 C-57.63379561 14.96148896 -43.529716 9.55439143 -29.5 4.8125 C-28.46033081 4.46034424 -28.46033081 4.46034424 -27.3996582 4.10107422 C-18.2768184 1.14580349 -9.58415957 -0.09222418 0 0 Z " fill="#2C2C2C" transform="translate(1384.1875,177.75)"/>
<path d="M0 0 C-7.34998315 18.93382756 -20.46231259 31.94126318 -38.96289062 40.16845703 C-42.63590768 41.66777344 -46.38855342 42.86400669 -50.1875 44 C-50.91831787 44.21986572 -51.64913574 44.43973145 -52.40209961 44.66625977 C-57.61166979 46.1294434 -57.61166979 46.1294434 -61 45 C-51.28552384 37.33149872 -41.48525285 29.83085995 -31.42041016 22.62744141 C-21.99813289 15.87297973 -12.85603106 8.79402899 -3.92578125 1.3984375 C-2 0 -2 0 0 0 Z " fill="#F7F7F7" transform="translate(499,254)"/>
<path d="M0 0 C0.66 0.33 1.32 0.66 2 1 C1.40759563 4.45346983 0.51873004 7.40143537 -0.92578125 10.58984375 C-1.30839111 11.44924561 -1.69100098 12.30864746 -2.08520508 13.1940918 C-2.69271606 14.55207886 -2.69271606 14.55207886 -3.3125 15.9375 C-6.92426772 24.20865349 -9.9175638 32.2009738 -12 41 C-12.16838379 41.69158203 -12.33676758 42.38316406 -12.51025391 43.09570312 C-13.06174355 45.37340018 -13.59690442 47.65427038 -14.125 49.9375 C-14.28395752 50.61643311 -14.44291504 51.29536621 -14.60668945 51.99487305 C-17.46254065 64.89959086 -18.38047685 77.64916537 -18.3125 90.8125 C-18.30926727 91.94943802 -18.30926727 91.94943802 -18.30596924 93.10934448 C-18.17780604 121.43600508 -13.9312999 149.37005425 -4 176 C-4.99 176.33 -5.98 176.66 -7 177 C-23.91699934 139.80210233 -26.27365637 94.97375805 -19 55 C-18.86078125 54.21173828 -18.7215625 53.42347656 -18.578125 52.61132812 C-15.19633714 34.05846419 -8.38820828 16.81999167 0 0 Z " fill="#3A3A3A" transform="translate(1251,274)"/>
<path d="M0 0 C0.99 0.495 0.99 0.495 2 1 C1.2575 1.721875 0.515 2.44375 -0.25 3.1875 C-2.96342386 5.84230714 -2.96342386 5.84230714 -4.84765625 8.453125 C-7.11726581 11.138761 -9.22150067 12.69253991 -12.1875 14.5625 C-17.2080302 17.81036415 -22.12531768 21.16213872 -27 24.625 C-28.09163452 25.39734985 -28.09163452 25.39734985 -29.20532227 26.18530273 C-32.16883799 28.28212082 -35.13122829 30.38043609 -38.08691406 32.48828125 C-56.74305178 45.78527457 -75.91173277 58.33638303 -95 71 C-95.66 70.67 -96.32 70.34 -97 70 C-89.6944671 64.52889607 -82.19448261 59.41236224 -74.58251953 54.38085938 C-69.55995269 51.0573053 -64.61685924 47.65812653 -59.75 44.109375 C-58 43 -58 43 -56 43 C-55.92249512 42.24332031 -55.84499023 41.48664063 -55.76513672 40.70703125 C-54.79965151 37.29117291 -53.69611215 36.6062924 -50.7578125 34.6875 C-49.86578125 34.09348389 -48.97375 33.49946777 -48.0546875 32.88745117 C-47.08789062 32.26459229 -46.12109375 31.6417334 -45.125 31 C-43.10655977 29.66307902 -41.08833438 28.32583363 -39.0703125 26.98828125 C-38.05098633 26.32006348 -37.03166016 25.6518457 -35.98144531 24.96337891 C-31.61837831 22.09015709 -27.30719406 19.14355693 -23 16.1875 C-22.23018799 15.6613208 -21.46037598 15.1351416 -20.66723633 14.59301758 C-13.70748198 9.82676679 -6.83669078 4.94070802 0 0 Z " fill="#353535" transform="translate(281,404)"/>
<path d="M0 0 C0 0.33 0 0.66 0 1 C31.68 1.33 63.36 1.66 96 2 C96 2.33 96 2.66 96 3 C94.15409775 3.00879936 94.15409775 3.00879936 92.27090454 3.01777649 C80.64813784 3.07510122 69.02555648 3.14791383 57.4029789 3.23571491 C51.42833441 3.28035647 45.45375714 3.31962641 39.47900391 3.34643555 C33.70818673 3.37253032 27.93762908 3.41297666 22.16697311 3.46318626 C19.97031264 3.47981321 17.77360733 3.49135337 15.57689285 3.49761391 C12.48930188 3.50730033 9.40236865 3.5354142 6.31494141 3.56762695 C5.41582031 3.56619186 4.51669922 3.56475677 3.59033203 3.5632782 C-6.65421463 3.71348088 -16.10874234 6.53622589 -23.72265625 13.59765625 C-30.5042926 20.91249251 -31.63846674 29.38917701 -33 39 C-34.79293539 36.94023089 -35.92229772 35.587557 -36.28515625 32.84375 C-35.3836518 23.3542295 -31.66818272 15.07724572 -24.6875 8.5 C-17.18233883 2.40205655 -9.58815444 -0.18438759 0 0 Z " fill="#414141" transform="translate(763,217)"/>
<path d="M0 0 C1.27875 0.00257812 2.5575 0.00515625 3.875 0.0078125 C5.15375 0.00523438 6.4325 0.00265625 7.75 0 C10.875 0.1328125 10.875 0.1328125 11.875 1.1328125 C11.97409302 3.46441305 12.00470504 5.79911192 12 8.1328125 C12.00386719 10.0509375 12.00386719 10.0509375 12.0078125 12.0078125 C11.875 15.1328125 11.875 15.1328125 10.875 16.1328125 C8.54339945 16.23190552 6.20870058 16.26251754 3.875 16.2578125 C2.59625 16.26039062 1.3175 16.26296875 0 16.265625 C-3.125 16.1328125 -3.125 16.1328125 -4.125 15.1328125 C-4.22409302 12.80121195 -4.25470504 10.46651308 -4.25 8.1328125 C-4.25257812 6.8540625 -4.25515625 5.5753125 -4.2578125 4.2578125 C-4.08423261 0.17357989 -4.08423261 0.17357989 0 0 Z " fill="#2A2A2E" transform="translate(1150.125,34.8671875)"/>
<path d="M0 0 C-6.62302468 5.1921912 -13.28781816 10.303736 -20.1875 15.125 C-21.25355469 15.87007813 -22.31960938 16.61515625 -23.41796875 17.3828125 C-26 19 -26 19 -28 19 C-28.00386719 19.70769531 -28.00773437 20.41539062 -28.01171875 21.14453125 C-29.5504035 25.59029628 -32.96427827 27.21292172 -36.8125 29.6875 C-37.90014648 30.41549805 -37.90014648 30.41549805 -39.00976562 31.15820312 C-42.26465904 33.31721294 -45.47826517 35.30145336 -49 37 C-49 36.34 -49 35.68 -49 35 C-49.66 34.67 -50.32 34.34 -51 34 C-50.236875 33.443125 -49.47375 32.88625 -48.6875 32.3125 C-45.9385438 30.21006313 -45.9385438 30.21006313 -44.62036133 27.5690918 C-42.81669133 24.70936309 -41.19444274 23.43326262 -38.38671875 21.58203125 C-37.47462646 20.97182129 -36.56253418 20.36161133 -35.62280273 19.73291016 C-34.65415283 19.0991748 -33.68550293 18.46543945 -32.6875 17.8125 C-30.69170682 16.4845769 -28.69691519 15.15514731 -26.703125 13.82421875 C-25.72923828 13.17630371 -24.75535156 12.52838867 -23.75195312 11.86083984 C-18.9866094 8.63856785 -14.38061716 5.206 -9.77734375 1.7578125 C-6.44676943 -0.35014593 -3.7058596 -1.8529298 0 0 Z " fill="#626262" transform="translate(327,377)"/>
<path d="M0 0 C0.66 0 1.32 0 2 0 C6.97418172 18.10602145 8.19067744 36.38658577 8.24023438 55.08813477 C8.25006804 57.32799716 8.2812955 59.56698664 8.3125 61.80664062 C8.36660426 69.39287605 8.04145505 75.91661126 5 83 C4.67 83 4.34 83 4 83 C4.02094727 81.76886475 4.04189453 80.53772949 4.06347656 79.26928711 C4.43249052 55.4796917 4.40815686 32.29666607 0.3671875 8.796875 C-0.02170681 5.83465876 -0.06180329 2.98421605 0 0 Z " fill="#2C2C2C" transform="translate(1556,321)"/>
<path d="M0 0 C3.4375 0.625 3.4375 0.625 5.875 2.6875 C7.82675759 6.35680427 8.03427999 8.52213759 7.4375 12.625 C5.9375 15.0625 5.9375 15.0625 3.4375 16.625 C-0.60810357 17.42914661 -3.54123756 17.26328902 -7.0625 15.0625 C-9.17256839 11.63363886 -9.18741523 9.58279649 -8.5625 5.625 C-5.94681879 1.89963585 -4.5021067 0.78984328 0 0 Z " fill="#C3C3C4" transform="translate(904.5625,34.375)"/>
<path d="M0 0 C1.60875 -0.00386719 1.60875 -0.00386719 3.25 -0.0078125 C6 0.125 6 0.125 8 1.125 C8 5.415 8 9.705 8 14.125 C2.72 14.125 -2.56 14.125 -8 14.125 C-8 9.835 -8 5.545 -8 1.125 C-5.26922124 -0.24038938 -3.04439633 -0.00731826 0 0 Z " fill="#444448" transform="translate(1814,30.875)"/>
<path d="M0 0 C10.08805273 0.8967158 19.26898319 4.18692848 26 12 C30.39002769 18.53917557 32.39279298 26.1441403 32 34 C31.34 34 30.68 34 30 34 C29.505 34.99 29.505 34.99 29 36 C28.85304688 35.03320312 28.70609375 34.06640625 28.5546875 33.0703125 C26.95805175 23.4744452 24.84402038 15.19815099 17.1875 8.5625 C9.15600618 4.62549323 2.09699878 3.54266813 -6.81640625 3.48828125 C-7.91347397 3.47033005 -9.01054169 3.45237885 -10.14085388 3.43388367 C-13.61469785 3.38008119 -17.08840678 3.34598117 -20.5625 3.3125 C-22.93035721 3.27930044 -25.29819667 3.24480837 -27.66601562 3.20898438 C-33.44388924 3.12437219 -39.221781 3.05589612 -45 3 C-45 2.67 -45 2.34 -45 2 C-22.725 1.505 -22.725 1.505 0 1 C0 0.67 0 0.34 0 0 Z " fill="#464646" transform="translate(1177,217)"/>
<path d="M0 0 C2 1 2 1 3 3 C1.84371094 3.79664063 1.84371094 3.79664063 0.6640625 4.609375 C-0.33882813 5.31578125 -1.34171875 6.0221875 -2.375 6.75 C-3.37273437 7.44609375 -4.37046875 8.1421875 -5.3984375 8.859375 C-8.0384685 10.72087984 -8.0384685 10.72087984 -8.92138672 12.95361328 C-10.22674101 15.4301818 -11.53391124 16.34667204 -13.859375 17.8828125 C-14.63949951 18.40593018 -15.41962402 18.92904785 -16.22338867 19.46801758 C-17.05717041 20.01482178 -17.89095215 20.56162598 -18.75 21.125 C-20.47087128 22.27612004 -22.19091558 23.42847726 -23.91015625 24.58203125 C-25.1943042 25.43982178 -25.1943042 25.43982178 -26.50439453 26.31494141 C-30.11154775 28.75052852 -33.65515866 31.2700726 -37.1875 33.8125 C-37.78079102 34.23869629 -38.37408203 34.66489258 -38.98535156 35.10400391 C-40.32480464 36.06761889 -41.6626207 37.03350893 -43 38 C-43.495 36.515 -43.495 36.515 -44 35 C-42.97261719 34.29875 -41.94523437 33.5975 -40.88671875 32.875 C-32.83474187 27.36652113 -24.84527094 21.80084652 -17 16 C-18.32 16.33 -19.64 16.66 -21 17 C-19.78408016 13.35224049 -18.64986071 12.78512464 -15.52734375 10.64453125 C-14.17866211 9.71157227 -14.17866211 9.71157227 -12.80273438 8.75976562 C-11.38444336 7.79586914 -11.38444336 7.79586914 -9.9375 6.8125 C-8.98810547 6.15830078 -8.03871094 5.50410156 -7.06054688 4.83007812 C-4.71171393 3.21304238 -2.35814483 1.60341196 0 0 Z " fill="#303030" transform="translate(343,361)"/>
<path d="M0 0 C0.99 0.66 1.98 1.32 3 2 C3.3984375 4.49609375 3.3984375 4.49609375 3.375 7.4375 C3.38273438 8.40558594 3.39046875 9.37367187 3.3984375 10.37109375 C3 13 3 13 1.65625 14.8125 C0 16 0 16 -2.875 16.5625 C-6 16 -6 16 -8.8125 13.1875 C-11 10 -11 10 -12 7 C-10.68 6.67 -9.36 6.34 -8 6 C-8 4.02 -8 2.04 -8 0 C-4.65649854 -1.11450049 -3.33342063 -0.91669067 0 0 Z " fill="#BCBCBD" transform="translate(708,36)"/>
<path d="M0 0 C3.36392694 1.51376712 5.24658696 3.20881842 7.5 6.125 C7.68376678 9.80033559 6.5214549 11.0975854 4.25 14 C1.5 16.125 1.5 16.125 -1 16.25 C-4.36392694 14.73623288 -6.24658696 13.04118158 -8.5 10.125 C-8.68376678 6.44966441 -7.5214549 5.1524146 -5.25 2.25 C-2.5 0.125 -2.5 0.125 0 0 Z " fill="#B3B3B4" transform="translate(854.5,34.875)"/>
<path d="M0 0 C1.32 0 2.64 0 4 0 C9 10 9 10 9.9140625 12.203125 C11.30264996 14.5007877 12.55005038 14.96399589 15 16 C17.23395857 17.28282773 19.46109346 18.57632782 21.68359375 19.87890625 C24.12782904 21.06186667 26.32685897 21.58040643 29 22 C28.34 22.33 27.68 22.66 27 23 C27 23.66 27 24.32 27 25 C19.41948622 24.50561867 12.98421137 21.52000071 7.1875 16.625 C-0.70707071 7.15151515 -0.70707071 7.15151515 -1 1 C-0.67 0.67 -0.34 0.34 0 0 Z " fill="#363636" transform="translate(729,482)"/>
<path d="M0 0 C0.99 0.495 0.99 0.495 2 1 C-22.99708963 19.63922007 -49.02526129 36.76897886 -75 54 C-75.66 53.67 -76.32 53.34 -77 53 C-69.88245629 47.66968092 -62.58192874 42.67931775 -55.17138672 37.76977539 C-47.25265645 32.51911823 -39.41964797 27.14728661 -31.5859375 21.77099609 C-28.77938049 19.84890729 -25.96836184 17.93348335 -23.15625 16.01953125 C-22.17301758 15.35026611 -21.18978516 14.68100098 -20.17675781 13.99145508 C-18.27545481 12.69775065 -16.3737829 11.40458815 -14.47167969 10.11206055 C-9.60440163 6.79873338 -4.77539094 3.44454429 0 0 Z " fill="#DBDBDB" transform="translate(261,421)"/>
<path d="M0 0 C1.2065625 0.0309375 1.2065625 0.0309375 2.4375 0.0625 C2.7675 1.3825 3.0975 2.7025 3.4375 4.0625 C2.7775 3.4025 2.1175 2.7425 1.4375 2.0625 C0.4475 2.0625 -0.5425 2.0625 -1.5625 2.0625 C-1.8925 3.3825 -2.2225 4.7025 -2.5625 6.0625 C-0.891875 6.0315625 -0.891875 6.0315625 0.8125 6 C4.4375 6.0625 4.4375 6.0625 6.4375 7.0625 C6.5625 10.4375 6.5625 10.4375 6.4375 14.0625 C4.4375 16.0625 4.4375 16.0625 2.125 16.328125 C1.238125 16.32296875 0.35125 16.3178125 -0.5625 16.3125 C-1.8928125 16.32023437 -1.8928125 16.32023437 -3.25 16.328125 C-5.5625 16.0625 -5.5625 16.0625 -7.5625 14.0625 C-7.6875 10.4375 -7.6875 10.4375 -7.5625 7.0625 C-6.5725 6.7325 -5.5825 6.4025 -4.5625 6.0625 C-4.418125 5.258125 -4.27375 4.45375 -4.125 3.625 C-3.347189 0.08163876 -3.347189 0.08163876 0 0 Z " fill="#CBCBCC" transform="translate(638.5625,34.9375)"/>
<path d="M0 0 C3.61711851 0.55708333 4.94146207 1.72861017 7.1875 4.5625 C15.72156245 14.63519844 27.3018597 23.76728657 40 28 C40 28.99 40 29.98 40 31 C35.57249694 30.41022004 32.11865421 28.65784374 28.3125 26.4375 C27.69745605 26.08107422 27.08241211 25.72464844 26.44873047 25.35742188 C16.50495113 19.46212576 6.53392736 11.67101174 0 2 C0 1.34 0 0.68 0 0 Z " fill="#383838" transform="translate(367,268)"/>
<path d="M0 0 C2.27220888 0.94282526 3.46207029 1.76230055 4.8828125 3.78125 C4.78592537 6.78475106 3.86433539 7.80140684 1.8203125 10.03125 C1.1809375 10.60875 0.5415625 11.18625 -0.1171875 11.78125 C0.8728125 12.44125 1.8628125 13.10125 2.8828125 13.78125 C1.27948459 13.86246924 -0.32502776 13.92054134 -1.9296875 13.96875 C-2.82300781 14.00355469 -3.71632813 14.03835937 -4.63671875 14.07421875 C-7.1171875 13.78125 -7.1171875 13.78125 -9.00390625 12.51953125 C-10.1171875 10.78125 -10.1171875 10.78125 -10.01171875 8.83203125 C-8.94548743 6.38761446 -7.67302738 4.8690957 -5.8046875 2.96875 C-5.21042969 2.34355469 -4.61617187 1.71835937 -4.00390625 1.07421875 C-2.1171875 -0.21875 -2.1171875 -0.21875 0 0 Z " fill="#949496" transform="translate(1207.1171875,36.21875)"/>
<path d="M0 0 C1.703125 0.7578125 1.703125 0.7578125 2.4609375 2.4609375 C2.703125 4.7578125 2.703125 4.7578125 1.0078125 7.1171875 C0.20601562 7.90609375 -0.59578125 8.695 -1.421875 9.5078125 C-2.20820312 10.30703125 -2.99453125 11.10625 -3.8046875 11.9296875 C-6.61590216 13.99183242 -7.89597329 14.1693095 -11.296875 13.7578125 C-11.708372 10.35691079 -11.53089492 9.07683966 -9.46875 6.265625 C-8.26992187 5.08613281 -8.26992187 5.08613281 -7.046875 3.8828125 C-6.25796875 3.08101562 -5.4690625 2.27921875 -4.65625 1.453125 C-2.296875 -0.2421875 -2.296875 -0.2421875 0 0 Z " fill="#454548" transform="translate(1058.296875,36.2421875)"/>
<path d="M0 0 C0.75410156 0.00322266 1.50820313 0.00644531 2.28515625 0.00976562 C3.06246094 0.01814453 3.83976562 0.02652344 4.640625 0.03515625 C5.43339844 0.03966797 6.22617187 0.04417969 7.04296875 0.04882812 C8.99222008 0.0605706 10.94143238 0.07850479 12.890625 0.09765625 C9.39070382 2.99650401 7.45893473 3.40913191 2.890625 3.09765625 C2.890625 3.75765625 2.890625 4.41765625 2.890625 5.09765625 C2.25898438 5.03964844 1.62734375 4.98164063 0.9765625 4.921875 C-7.6795315 4.48532847 -14.19908481 6.86425296 -22.109375 10.09765625 C-22.439375 9.10765625 -22.769375 8.11765625 -23.109375 7.09765625 C-20.69397194 6.11527217 -18.27715678 5.13665407 -15.859375 4.16015625 C-15.17746094 3.88236328 -14.49554688 3.60457031 -13.79296875 3.31835938 C-9.07267948 1.41649525 -5.09449872 -0.03859469 0 0 Z " fill="#424242" transform="translate(425.109375,157.90234375)"/>
<path d="M0 0 C1.32 0 2.64 0 4 0 C5.98 4.62 7.96 9.24 10 14 C7.69 14 5.38 14 3 14 C3 13.01 3 12.02 3 11 C1.35 10.67 -0.3 10.34 -2 10 C-2 11.32 -2 12.64 -2 14 C-2.99 13.67 -3.98 13.34 -5 13 C-3.35 8.71 -1.7 4.42 0 0 Z " fill="#727274" transform="translate(1102,36)"/>
<path d="M0 0 C0.78375 0.33 1.5675 0.66 2.375 1 C5.01171441 2.31384006 5.01171441 2.31384006 7.8125 1.125 C8.534375 0.75375 9.25625 0.3825 10 0 C12 2 12 2 12.125 4.625 C12.08375 5.40875 12.0425 6.1925 12 7 C7.06603122 8.09643751 2.93396878 8.09643751 -2 7 C-2.33 5.35 -2.66 3.7 -3 2 C-2.01 1.34 -1.02 0.68 0 0 Z " fill="#CCCCCC" transform="translate(1197,92)"/>
<path d="M0 0 C1.093125 0.00257812 2.18625 0.00515625 3.3125 0.0078125 C4.405625 0.00523438 5.49875 0.00265625 6.625 0 C9.3125 0.1328125 9.3125 0.1328125 10.3125 1.1328125 C10.35342937 3.46578683 10.35491723 5.79986475 10.3125 8.1328125 C9.29929687 7.88144531 9.29929687 7.88144531 8.265625 7.625 C6.92757813 7.31949219 6.92757813 7.31949219 5.5625 7.0078125 C4.23992187 6.69457031 4.23992187 6.69457031 2.890625 6.375 C-0.01625493 6.10192946 -1.25411348 6.59773222 -3.6875 8.1328125 C-3.72991723 5.79986475 -3.72842937 3.46578683 -3.6875 1.1328125 C-2.6875 0.1328125 -2.6875 0.1328125 0 0 Z " fill="#E5E5E5" transform="translate(1150.6875,35.8671875)"/>
<path d="M0 0 C-8.47235577 6.64199413 -17.08640197 12.96034438 -26 19 C-26.66 18.67 -27.32 18.34 -28 18 C-27.236875 17.443125 -26.47375 16.88625 -25.6875 16.3125 C-22.94389855 14.22964743 -22.94389855 14.22964743 -21.73046875 11.65234375 C-19.56657035 8.33566878 -16.86039968 6.41422006 -13.625 4.25 C-13.06039063 3.85167969 -12.49578125 3.45335937 -11.9140625 3.04296875 C-4.30545193 -2.15272597 -4.30545193 -2.15272597 0 0 Z " fill="#696969" transform="translate(327,377)"/>
<path d="M0 0 C-3.04727453 3.28623096 -6.63303237 4.96149485 -10.625 6.875 C-12.06585813 7.57918855 -13.50596726 8.28491178 -14.9453125 8.9921875 C-15.98800293 9.50410645 -15.98800293 9.50410645 -17.05175781 10.02636719 C-20.77387438 11.88649261 -24.39791012 13.91879252 -28 16 C-27.8671875 14.24609375 -27.8671875 14.24609375 -27 12 C-20.89980373 7.30825883 -7.59214147 -2.53071382 0 0 Z " fill="#333333" transform="translate(1338,191)"/>
<path d="M0 0 C0.80308594 0.01417969 1.60617187 0.02835937 2.43359375 0.04296875 C3.64208984 0.05263672 3.64208984 0.05263672 4.875 0.0625 C6.87109375 0.23046875 6.87109375 0.23046875 7.87109375 1.23046875 C7.91202312 3.56344308 7.91351098 5.897521 7.87109375 8.23046875 C6.05867323 8.25734154 4.24614142 8.2768059 2.43359375 8.29296875 C1.42425781 8.30457031 0.41492188 8.31617187 -0.625 8.328125 C-3.12890625 8.23046875 -3.12890625 8.23046875 -4.12890625 7.23046875 C-4.31640625 4.79296875 -4.31640625 4.79296875 -4.12890625 2.23046875 C-2.12890625 0.23046875 -2.12890625 0.23046875 0 0 Z " fill="#E9E9E9" transform="translate(755.12890625,91.76953125)"/>
<path d="M0 0 C0.66 0 1.32 0 2 0 C2.33 1.65 2.66 3.3 3 5 C4.99983534 4.20882096 4.99983534 4.20882096 7 3 C7.33 2.01 7.66 1.02 8 0 C8.66 0 9.32 0 10 0 C10 3.63 10 7.26 10 11 C6.66666667 11 3.33333333 11 0 11 C0 7.37 0 3.74 0 0 Z " fill="#DCDCDC" transform="translate(817,89)"/>
<path d="M0 0 C1.671549 0.30791692 3.33805547 0.64386903 5 1 C7.23167185 0.63143136 7.23167185 0.63143136 9 0 C9.33 1.65 9.66 3.3 10 5 C8.68 5 7.36 5 6 5 C6 5.66 6 6.32 6 7 C7.32 7.33 8.64 7.66 10 8 C8.18757948 8.02687279 6.37504767 8.04633715 4.5625 8.0625 C3.55316406 8.07410156 2.54382813 8.08570312 1.50390625 8.09765625 C-1 8 -1 8 -2 7 C-2.1875 4.5625 -2.1875 4.5625 -2 2 C-1.34 1.34 -0.68 0.68 0 0 Z " fill="#DDDDDD" transform="translate(957,92)"/>
<path d="M0 0 C0.33 0.66 0.66 1.32 1 2 C-5.23496551 9.24118473 -11.75881527 15.76503449 -19 22 C-19.33 21.01 -19.66 20.02 -20 19 C-6.3667426 5.18223235 -6.3667426 5.18223235 0 0 Z " fill="#282828" transform="translate(1514,502)"/>
<path d="M0 0 C2 0.8125 2 0.8125 5 2.8125 C5 2.1525 5 1.4925 5 0.8125 C6.32 1.4725 7.64 2.1325 9 2.8125 C8.67 4.1325 8.34 5.4525 8 6.8125 C4.04 6.8125 0.08 6.8125 -4 6.8125 C-4.33 5.4925 -4.66 4.1725 -5 2.8125 C-3.48684989 0.50295509 -2.80799628 -0.26324965 0 0 Z " fill="#E6E6E6" transform="translate(1152,43.1875)"/>
<path d="M0 0 C0 0.99 0 1.98 0 3 C-2.30859375 4.83203125 -2.30859375 4.83203125 -5.4375 6.8125 C-6.52417969 7.50988281 -7.61085937 8.20726562 -8.73046875 8.92578125 C-10.34888672 9.95251953 -10.34888672 9.95251953 -12 11 C-13.75337862 12.16158277 -15.50386558 13.32755568 -17.25 14.5 C-18.5 15.33333333 -19.75 16.16666667 -21 17 C-21.66 15.68 -22.32 14.36 -23 13 C-21.4221875 12.2884375 -21.4221875 12.2884375 -19.8125 11.5625 C-15.00193739 9.18744664 -10.72975628 6.13331483 -6.39379883 2.99829102 C-2.20194652 0 -2.20194652 0 0 0 Z " fill="#323232" transform="translate(225,444)"/>
<path d="M0 0 C2.625 0.375 2.625 0.375 5 1 C4.34 2.65 3.68 4.3 3 6 C4.65 6 6.3 6 8 6 C7.67 7.65 7.34 9.3 7 11 C0.25 12.125 0.25 12.125 -2 11 C-2.05399736 9.54207116 -2.09279177 8.08357288 -2.125 6.625 C-2.15980469 5.40683594 -2.15980469 5.40683594 -2.1953125 4.1640625 C-2 2 -2 2 0 0 Z " fill="#D6D6D6" transform="translate(1078,92)"/>
<path d="M0 0 C1.2065625 0.0309375 1.2065625 0.0309375 2.4375 0.0625 C2.7675 1.3825 3.0975 2.7025 3.4375 4.0625 C2.7775 3.4025 2.1175 2.7425 1.4375 2.0625 C0.4475 2.0625 -0.5425 2.0625 -1.5625 2.0625 C-1.8925 3.3825 -2.2225 4.7025 -2.5625 6.0625 C-0.891875 6.0315625 -0.891875 6.0315625 0.8125 6 C4.4375 6.0625 4.4375 6.0625 6.4375 7.0625 C6.5625 10.4375 6.5625 10.4375 6.4375 14.0625 C4.4375 16.0625 4.4375 16.0625 2.125 16.328125 C1.238125 16.32296875 0.35125 16.3178125 -0.5625 16.3125 C-1.8928125 16.32023437 -1.8928125 16.32023437 -3.25 16.328125 C-5.5625 16.0625 -5.5625 16.0625 -7.5625 14.0625 C-7.6875 10.4375 -7.6875 10.4375 -7.5625 7.0625 C-6.5725 6.7325 -5.5825 6.4025 -4.5625 6.0625 C-4.418125 5.258125 -4.27375 4.45375 -4.125 3.625 C-3.347189 0.08163876 -3.347189 0.08163876 0 0 Z M-5.5625 8.0625 C-5.72916667 11.0625 -5.72916667 11.0625 -5.5625 14.0625 C-4.58339415 15.25945276 -4.58339415 15.25945276 -2.75 15.1953125 C-2.028125 15.19273438 -1.30625 15.19015625 -0.5625 15.1875 C0.159375 15.19007812 0.88125 15.19265625 1.625 15.1953125 C3.45839415 15.25945276 3.45839415 15.25945276 4.4375 14.0625 C4.47842937 11.72952567 4.47991723 9.39544775 4.4375 7.0625 C2.95843108 7.03560784 1.47922517 7.01615379 0 7 C-0.82371094 6.98839844 -1.64742187 6.97679687 -2.49609375 6.96484375 C-4.55413938 6.82982652 -4.55413938 6.82982652 -5.5625 8.0625 Z " fill="#4C4C4F" transform="translate(638.5625,34.9375)"/>
<path d="M0 0 C-0.99 0.66 -1.98 1.32 -3 2 C-2.01 2.66 -1.02 3.32 0 4 C0 4.99 0 5.98 0 7 C-1.97909398 7.02686553 -3.95828971 7.04633375 -5.9375 7.0625 C-7.03964844 7.07410156 -8.14179687 7.08570312 -9.27734375 7.09765625 C-12 7 -12 7 -13 6 C-13.04080783 4.00041636 -13.04254356 1.99954746 -13 0 C-12.34 0 -11.68 0 -11 0 C-11 1.98 -11 3.96 -11 6 C-10.34 6 -9.68 6 -9 6 C-9 4.02 -9 2.04 -9 0 C-5.62182575 -0.84454356 -3.32534757 -1.10844919 0 0 Z " fill="#D9D9D9" transform="translate(865,93)"/>
<path d="M0 0 C2.125 0.375 2.125 0.375 4 1 C4 1.66 4 2.32 4 3 C5.32 2.01 6.64 1.02 8 0 C9.32 0.66 10.64 1.32 12 2 C12 2.99 12 3.98 12 5 C10.68 5.33 9.36 5.66 8 6 C9.32 6.66 10.64 7.32 12 8 C9.625 8.125 9.625 8.125 7 8 C6.34 7.34 5.68 6.68 5 6 C2.42938689 5.35232207 2.42938689 5.35232207 0 5 C0 5.66 0 6.32 0 7 C1.32 7.33 2.64 7.66 4 8 C2.33388095 8.042721 0.66617115 8.04063832 -1 8 C-2 7 -2 7 -2.1875 4.5625 C-2 2 -2 2 0 0 Z " fill="#D3D3D3" transform="translate(897,92)"/>
<path d="M0 0 C0.99 0.33 1.98 0.66 3 1 C5.63804589 0.60602665 5.63804589 0.60602665 8 0 C7.87890625 1.734375 7.87890625 1.734375 7 4 C4.27734375 6.140625 4.27734375 6.140625 0.9375 8.25 C-0.16722656 8.95640625 -1.27195312 9.6628125 -2.41015625 10.390625 C-3.26480469 10.92171875 -4.11945313 11.4528125 -5 12 C-5.33 11.34 -5.66 10.68 -6 10 C-6.66 9.67 -7.32 9.34 -8 9 C-6.8553125 8.1646875 -6.8553125 8.1646875 -5.6875 7.3125 C-3.03859112 5.03320631 -1.61711178 3.06400128 0 0 Z " fill="#343434" transform="translate(284,402)"/>
<path d="M0 0 C0.99 0.33 1.98 0.66 3 1 C-0.78913026 5.28879579 -5.49904816 8.14703458 -10.25 11.25 C-11.09046875 11.80429687 -11.9309375 12.35859375 -12.796875 12.9296875 C-14.86185075 14.29069425 -16.92958185 15.64729288 -19 17 C-19.33 16.34 -19.66 15.68 -20 15 C-16.15516315 10.88795441 -12.05317075 7.74073481 -7.375 4.625 C-6.70726562 4.16222656 -6.03953125 3.69945312 -5.3515625 3.22265625 C-3.62162857 2.06360051 -1.81434719 1.02187371 0 0 Z " fill="#373737" transform="translate(219,452)"/>
<path d="M0 0 C1.5078125 1.22265625 1.5078125 1.22265625 3 3 C3.63513182 10.27640151 0.89660524 18.05770911 -1 25 C-1.99 24.67 -2.98 24.34 -4 24 C-3.35588614 18.44686304 -2.49942196 12.98744364 -1.4375 7.5 C-1.22963867 6.40945313 -1.22963867 6.40945313 -1.01757812 5.296875 C-0.68063335 3.53081963 -0.34064317 1.76534574 0 0 Z " fill="#323232" transform="translate(1559,400)"/>
<path d="M0 0 C0.66 0 1.32 0 2 0 C2 1.32 2 2.64 2 4 C3.65 4 5.3 4 7 4 C7 6.31 7 8.62 7 11 C6.34 11 5.68 11 5 11 C5 9.02 5 7.04 5 5 C4.01 5 3.02 5 2 5 C2 6.98 2 8.96 2 11 C0.02 11 -1.96 11 -4 11 C-4.625 7.625 -4.625 7.625 -5 4 C-4.34 3.34 -3.68 2.68 -3 2 C-3 2.66 -3 3.32 -3 4 C-2.34 4 -1.68 4 -1 4 C-0.67 2.68 -0.34 1.36 0 0 Z " fill="#D7D7D7" transform="translate(1136,89)"/>
<path d="M0 0 C1.62723299 0.45034123 3.25173664 0.91055354 4.875 1.375 C5.77992188 1.63023438 6.68484375 1.88546875 7.6171875 2.1484375 C10 3 10 3 12 5 C11.236875 5.598125 10.47375 6.19625 9.6875 6.8125 C7.64621657 8.47400977 5.83099472 10.12604939 4 12 C3.3291288 10.3767313 2.66342971 8.75132422 2 7.125 C1.62875 6.22007813 1.2575 5.31515625 0.875 4.3828125 C0 2 0 2 0 0 Z " fill="#0F0C6C" transform="translate(749,38)"/>
<path d="M0 0 C0.33 0 0.66 0 1 0 C1.23014885 5.72303477 0.39800006 10.80449617 -0.875 16.375 C-1.04902344 17.19355469 -1.22304687 18.01210938 -1.40234375 18.85546875 C-1.86469241 20.92062608 -2.42471643 22.96341219 -3 25 C-3.66 25.33 -4.32 25.66 -5 26 C-5.44795025 17.19031173 -4.35631668 7.82242951 0 0 Z " fill="#323232" transform="translate(1237,312)"/>
<path d="M0 0 C0 1.98 0 3.96 0 6 C-1.65 6.33 -3.3 6.66 -5 7 C-5 7.99 -5 8.98 -5 10 C-5.66 10 -6.32 10 -7 10 C-7.33 9.01 -7.66 8.02 -8 7 C-9.65 7 -11.3 7 -13 7 C-11.68 6.67 -10.36 6.34 -9 6 C-9 5.34 -9 4.68 -9 4 C-8.34 4 -7.68 4 -7 4 C-7 2.68 -7 1.36 -7 0 C-3.86650268 -1.04449911 -3.01031744 -0.93423645 0 0 Z " fill="#DADADA" transform="translate(946,93)"/>
<path d="M0 0 C2.125 0.375 2.125 0.375 4 1 C3.79375 1.7425 3.5875 2.485 3.375 3.25 C2.95591249 6.32330841 3.38050989 7.42786866 5 10 C2.625 11.0625 2.625 11.0625 0 12 C-0.66 11.67 -1.32 11.34 -2 11 C-2.05399736 9.54207116 -2.09279177 8.08357288 -2.125 6.625 C-2.15980469 5.40683594 -2.15980469 5.40683594 -2.1953125 4.1640625 C-2 2 -2 2 0 0 Z " fill="#D8D8D8" transform="translate(1059,92)"/>
<path d="M0 0 C1.98 0.495 1.98 0.495 4 1 C3.01 1.66 2.02 2.32 1 3 C4.00259517 3.33218192 4.00259517 3.33218192 5.6875 1.5 C6.120625 1.005 6.55375 0.51 7 0 C8.32 0.66 9.64 1.32 11 2 C11 2.99 11 3.98 11 5 C9.68 5.33 8.36 5.66 7 6 C8.32 6.66 9.64 7.32 11 8 C2.625 8 2.625 8 -1 7 C-0.01 7 0.98 7 2 7 C2 6.34 2 5.68 2 5 C1.01 4.67 0.02 4.34 -1 4 C-0.67 2.68 -0.34 1.36 0 0 Z " fill="#D0D0D0" transform="translate(1116,92)"/>
<path d="M0 0 C0.66 0.33 1.32 0.66 2 1 C-7.61063242 8.08010176 -17.26823232 15.08729599 -27 22 C-27.66 21.34 -28.32 20.68 -29 20 C-28.0553186 19.35768433 -28.0553186 19.35768433 -27.09155273 18.70239258 C-24.20629827 16.73993191 -21.32189353 14.77622581 -18.4375 12.8125 C-17.44685547 12.13896484 -16.45621094 11.46542969 -15.43554688 10.77148438 C-10.24731592 7.2379716 -5.08868006 3.67555432 0 0 Z " fill="#CECECE" transform="translate(261,421)"/>
<path d="M0 0 C0.66 0 1.32 0 2 0 C2 3.63 2 7.26 2 11 C0.02 11 -1.96 11 -4 11 C-4.33 9.02 -4.66 7.04 -5 5 C-3.35 4.34 -1.7 3.68 0 3 C0 2.01 0 1.02 0 0 Z " fill="#CDCDCD" transform="translate(1183,89)"/>
<path d="M0 0 C0.66 0 1.32 0 2 0 C2.33 0.99 2.66 1.98 3 3 C5.00016466 4.20882096 5.00016466 4.20882096 7 5 C6.67 6.98 6.34 8.96 6 11 C4.02 11 2.04 11 0 11 C0 7.37 0 3.74 0 0 Z " fill="#DADADA" transform="translate(969,89)"/>
<path d="M0 0 C0.66 0.33 1.32 0.66 2 1 C-3.08936022 6.61584576 -10.31620673 13.77059308 -18 15 C-16.87316258 11.61948773 -16.28873197 11.2351314 -13.4375 9.3359375 C-12.72335937 8.85382813 -12.00921875 8.37171875 -11.2734375 7.875 C-10.52320313 7.38 -9.77296875 6.885 -9 6.375 C-7.52037381 5.38349791 -6.04118388 4.39134437 -4.5625 3.3984375 C-3.57443359 2.74367432 -3.57443359 2.74367432 -2.56640625 2.07568359 C-1.02964039 1.09051031 -1.02964039 1.09051031 0 0 Z " fill="#333333" transform="translate(281,404)"/>
<path d="M0 0 C1.98 0 3.96 0 6 0 C6 3.3 6 6.6 6 10 C3.03 9.505 3.03 9.505 0 9 C0 6.03 0 3.06 0 0 Z " fill="#E9E9F1" transform="translate(1815,33)"/>
<path d="M0 0 C1.98 0 3.96 0 6 0 C6 2.97 6 5.94 6 9 C4.02 9.33 2.04 9.66 0 10 C0 6.7 0 3.4 0 0 Z " fill="#EAEAF1" transform="translate(1807,33)"/>
<path d="M0 0 C0.33 1.32 0.66 2.64 1 4 C1.61875 3.79375 2.2375 3.5875 2.875 3.375 C3.926875 3.189375 3.926875 3.189375 5 3 C5.66 3.66 6.32 4.32 7 5 C6.44444444 9.55555556 6.44444444 9.55555556 5 11 C3.35 11 1.7 11 0 11 C0 7.37 0 3.74 0 0 Z " fill="#94949B" transform="translate(1847,32)"/>
<path d="M0 0 C0.66 0 1.32 0 2 0 C2 1.32 2 2.64 2 4 C2.804375 3.979375 3.60875 3.95875 4.4375 3.9375 C7 4 7 4 8 5 C8.04092937 7.33297433 8.04241723 9.66705225 8 12 C7.01 12 6.02 12 5 12 C5 9.69 5 7.38 5 5 C4.01 5.495 4.01 5.495 3 6 C2.34227572 9.02934491 2.34227572 9.02934491 2 12 C1.34 12 0.68 12 0 12 C0 8.04 0 4.08 0 0 Z " fill="#D2D1F4" transform="translate(1733,32)"/>
<path d="M0 0 C0.66 0.33 1.32 0.66 2 1 C-9.26333814 9.57480173 -9.26333814 9.57480173 -16 12 C-16.969375 12.391875 -17.93875 12.78375 -18.9375 13.1875 C-19.618125 13.455625 -20.29875 13.72375 -21 14 C-19.48805186 9.76654521 -16.84325085 8.14335143 -13 6 C-12.030625 5.855625 -11.06125 5.71125 -10.0625 5.5625 C-5.75981539 4.77221099 -3.43220477 2.67711972 0 0 Z " fill="#6C6C6C" transform="translate(274,412)"/>
<path d="M0 0 C1 1 1 1 1.0625 4.5625 C1.041875 5.696875 1.02125 6.83125 1 8 C-0.98 8 -2.96 8 -5 8 C-4.625 6.0625 -4.625 6.0625 -4 4 C-3.34 3.67 -2.68 3.34 -2 3 C-4.97 2.505 -4.97 2.505 -8 2 C-8 3.98 -8 5.96 -8 8 C-8.33 8 -8.66 8 -9 8 C-9 5.69 -9 3.38 -9 1 C-6.01787087 -0.49106457 -3.28390342 -0.11941467 0 0 Z " fill="#D1D1D1" transform="translate(1047,92)"/>
<path d="M0 0 C3.53571429 0.53571429 3.53571429 0.53571429 5 2 C5.125 4.5 5.125 4.5 5 7 C4 8 4 8 1.5 8.125 C-1 8 -1 8 -2 7 C-2.1875 4.5625 -2.1875 4.5625 -2 2 C-1.34 1.34 -0.68 0.68 0 0 Z " fill="#DCDCDC" transform="translate(1092,92)"/>
<path d="M0 0 C3.53571429 0.53571429 3.53571429 0.53571429 5 2 C5.125 4.5 5.125 4.5 5 7 C4 8 4 8 1.5 8.125 C-1 8 -1 8 -2 7 C-2.1875 4.5625 -2.1875 4.5625 -2 2 C-1.34 1.34 -0.68 0.68 0 0 Z " fill="#DCDCDC" transform="translate(810,92)"/>
<path d="M0 0 C2.125 0.375 2.125 0.375 4 1 C5.125 5.75 5.125 5.75 4 8 C2.33388095 8.042721 0.66617115 8.04063832 -1 8 C-2 7 -2 7 -2.1875 4.5625 C-2 2 -2 2 0 0 Z " fill="#DCDCDC" transform="translate(704,92)"/>
<path d="M0 0 C0.33 0 0.66 0 1 0 C1 3.63 1 7.26 1 11 C-0.65 11 -2.3 11 -4 11 C-5 10 -5 10 -5.0625 7.4375 C-5.041875 6.633125 -5.02125 5.82875 -5 5 C-4.360625 4.731875 -3.72125 4.46375 -3.0625 4.1875 C-0.66868314 3.11332248 -0.66868314 3.11332248 0 0 Z " fill="#C6C6C6" transform="translate(1034,89)"/>
<path d="M0 0 C1.2065625 0.0309375 1.2065625 0.0309375 2.4375 0.0625 C2.7675 1.7125 3.0975 3.3625 3.4375 5.0625 C1.7875 5.0625 0.1375 5.0625 -1.5625 5.0625 C-1.5625 5.7225 -1.5625 6.3825 -1.5625 7.0625 C-0.2425 7.3925 1.0775 7.7225 2.4375 8.0625 C0.0625 8.1875 0.0625 8.1875 -2.5625 8.0625 C-3.2225 7.4025 -3.8825 6.7425 -4.5625 6.0625 C-3.83457637 0.09352625 -3.83457637 0.09352625 0 0 Z " fill="#B4B2ED" transform="translate(1759.5625,35.9375)"/>
<path d="M0 0 C2.125 0.9375 2.125 0.9375 4 2 C4 3.65 4 5.3 4 7 C1.625 7.625 1.625 7.625 -1 8 C-1.66 7.34 -2.32 6.68 -3 6 C-2.75 3.4375 -2.75 3.4375 -2 1 C-1.34 0.67 -0.68 0.34 0 0 Z " fill="#CACACA" transform="translate(728,92)"/>
<path d="M0 0 C0.66 0 1.32 0 2 0 C2 2.97 2 5.94 2 9 C3.65 9 5.3 9 7 9 C7 9.66 7 10.32 7 11 C2.6835078 11.76173392 -0.74433453 12.16063604 -5 11 C-5 10.34 -5 9.68 -5 9 C-3.35 9 -1.7 9 0 9 C0 6.03 0 3.06 0 0 Z " fill="#7B7B81" transform="translate(1813,33)"/>
<path d="M0 0 C0.66 0 1.32 0 2 0 C2 0.66 2 1.32 2 2 C2.66 2 3.32 2 4 2 C4 1.34 4 0.68 4 0 C5.32 0.66 6.64 1.32 8 2 C8.66 1.34 9.32 0.68 10 0 C9.67 2.31 9.34 4.62 9 7 C8.01 7 7.02 7 6 7 C5.67 6.34 5.34 5.68 5 5 C4.67 5.66 4.34 6.32 4 7 C3.34 7 2.68 7 2 7 C1.34 4.69 0.68 2.38 0 0 Z " fill="#CFCFCF" transform="translate(876,93)"/>
<path d="M0 0 C0 0.99 0 1.98 0 3 C-2.625 5.04296875 -2.625 5.04296875 -6 7.1875 C-6.57234375 7.55552734 -7.1446875 7.92355469 -7.734375 8.30273438 C-9.15024462 9.21125071 -10.57437797 10.10686477 -12 11 C-12.66 10.67 -13.32 10.34 -14 10 C-4.57142857 0 -4.57142857 0 0 0 Z " fill="#2F2F2F" transform="translate(278,412)"/>
<path d="M0 0 C2 0 4 0 6 0 C6.33 0.99 6.66 1.98 7 3 C7.33 2.01 7.66 1.02 8 0 C8.66 0 9.32 0 10 0 C9.34 2.31 8.68 4.62 8 7 C7.34 7 6.68 7 6 7 C5.67 6.01 5.34 5.02 5 4 C4.67 4.99 4.34 5.98 4 7 C3.01 7 2.02 7 1 7 C0.67 4.69 0.34 2.38 0 0 Z " fill="#CECECE" transform="translate(992,93)"/>
<path d="M0 0 C2.125 0.375 2.125 0.375 4 1 C4 2.98 4 4.96 4 7 C2.34385343 7.38218767 0.67542976 7.71395102 -1 8 C-2 7 -2 7 -2.1875 4.5625 C-2 2 -2 2 0 0 Z " fill="#DCDCDC" transform="translate(919,92)"/>
<path d="M0 0 C2.125 0.375 2.125 0.375 4 1 C4 2.98 4 4.96 4 7 C2.34385343 7.38218767 0.67542976 7.71395102 -1 8 C-2 7 -2 7 -2.1875 4.5625 C-2 2 -2 2 0 0 Z " fill="#DCDCDC" transform="translate(846,92)"/>
<path d="M0 0 C1.4540625 0.0309375 1.4540625 0.0309375 2.9375 0.0625 C2.9375 0.7225 2.9375 1.3825 2.9375 2.0625 C1.6175 2.0625 0.2975 2.0625 -1.0625 2.0625 C-1.3925 2.7225 -1.7225 3.3825 -2.0625 4.0625 C-0.0825 4.7225 1.8975 5.3825 3.9375 6.0625 C3.6075 7.7125 3.2775 9.3625 2.9375 11.0625 C0.9575 11.0625 -1.0225 11.0625 -3.0625 11.0625 C-3.3925 10.4025 -3.7225 9.7425 -4.0625 9.0625 C-2.4125 9.0625 -0.7625 9.0625 0.9375 9.0625 C1.2675 8.4025 1.5975 7.7425 1.9375 7.0625 C1.133125 6.815 0.32875 6.5675 -0.5 6.3125 C-3.0625 5.0625 -3.0625 5.0625 -3.9375 3 C-3.97875 2.360625 -4.02 1.72125 -4.0625 1.0625 C-3.0625 0.0625 -3.0625 0.0625 0 0 Z " fill="#E0DFF7" transform="translate(1728.0625,32.9375)"/>
<path d="M0 0 C0.66 0 1.32 0 2 0 C2.33 0.99 2.66 1.98 3 3 C3.99 3.33 4.98 3.66 6 4 C6 6.31 6 8.62 6 11 C5.34 11 4.68 11 4 11 C4 9.02 4 7.04 4 5 C3.34 5 2.68 5 2 5 C2 6.98 2 8.96 2 11 C1.34 11 0.68 11 0 11 C0 7.37 0 3.74 0 0 Z " fill="#D1D1D1" transform="translate(1155,89)"/>
<path d="M0 0 C0.66 0 1.32 0 2 0 C2.33 0.99 2.66 1.98 3 3 C5.00016466 4.20882096 5.00016466 4.20882096 7 5 C7 6.98 7 8.96 7 11 C6.34 11 5.68 11 5 11 C5 9.02 5 7.04 5 5 C4.01 5 3.02 5 2 5 C2 6.98 2 8.96 2 11 C1.34 11 0.68 11 0 11 C0 7.37 0 3.74 0 0 Z " fill="#D0D0D0" transform="translate(1003,89)"/>
<path d="M0 0 C0.66 0 1.32 0 2 0 C2.33 0.99 2.66 1.98 3 3 C5.00016466 4.20882096 5.00016466 4.20882096 7 5 C7 6.98 7 8.96 7 11 C6.34 11 5.68 11 5 11 C5 9.02 5 7.04 5 5 C4.01 5 3.02 5 2 5 C2 6.98 2 8.96 2 11 C1.34 11 0.68 11 0 11 C0 7.37 0 3.74 0 0 Z " fill="#D0D0D0" transform="translate(800,89)"/>
<path d="M0 0 C0.33 0 0.66 0 1 0 C1.33 1.98 1.66 3.96 2 6 C2.70125 5.62875 3.4025 5.2575 4.125 4.875 C7.76443651 3.76734541 9.55700411 4.55874591 13 6 C12.01 6.495 12.01 6.495 11 7 C11 7.66 11 8.32 11 9 C10.4225 8.649375 9.845 8.29875 9.25 7.9375 C6.64198224 6.85082593 5.60582371 7.06934867 3 8 C2.7834375 8.928125 2.7834375 8.928125 2.5625 9.875 C2 12 2 12 1 14 C0 13 0 13 -0.09765625 10.05859375 C-0.08605469 8.86363281 -0.07445312 7.66867188 -0.0625 6.4375 C-0.05347656 5.23996094 -0.04445313 4.04242188 -0.03515625 2.80859375 C-0.02355469 1.88175781 -0.01195312 0.95492187 0 0 Z " fill="#323236" transform="translate(1146,37)"/>
<path d="M0 0 C0.66 0.33 1.32 0.66 2 1 C1.34 5.62 0.68 10.24 0 15 C-3.39730072 10.47026571 -3.39730072 10.47026571 -2.8125 5.8125 C-2.71582031 4.93207031 -2.61914062 4.05164063 -2.51953125 3.14453125 C-2.34808594 2.43683594 -2.17664063 1.72914063 -2 1 C-1.34 0.67 -0.68 0.34 0 0 Z " fill="#474747" transform="translate(730,241)"/>
<path d="M0 0 C0.99 0.33 1.98 0.66 3 1 C1.55873214 4.36295835 -0.20592655 6.62927102 -3 9 C-3.99 9 -4.98 9 -6 9 C-5.52797514 4.75177626 -3.03344482 2.80010291 0 0 Z " fill="#F1F1F1" transform="translate(1054,40)"/>
<path d="M0 0 C0.33 0.99 0.66 1.98 1 3 C1.66 3 2.32 3 3 3 C2.88490339 4.41750563 2.75746342 5.83401169 2.625 7.25 C2.55539062 8.03890625 2.48578125 8.8278125 2.4140625 9.640625 C1.98492887 12.085877 1.21399362 13.84836903 0 16 C0 15.34 0 14.68 0 14 C-0.66 14 -1.32 14 -2 14 C-1.34 9.38 -0.68 4.76 0 0 Z " fill="#454545" transform="translate(1206,470)"/>
<path d="M0 0 C0.33 0.99 0.66 1.98 1 3 C-3.29 5.97 -7.58 8.94 -12 12 C-12.33 11.01 -12.66 10.02 -13 9 C-8.71 6.03 -4.42 3.06 0 0 Z " fill="#353535" transform="translate(312,387)"/>
<path d="M0 0 C2 1 2 1 3 3 C-1.455 5.97 -1.455 5.97 -6 9 C-6.66 8.34 -7.32 7.68 -8 7 C-5.42215154 4.35247996 -3.08351902 2.05567935 0 0 Z " fill="#545454" transform="translate(343,361)"/>
<path d="M0 0 C0.99 0.33 1.98 0.66 3 1 C3.66 4.63 4.32 8.26 5 12 C4.34 12 3.68 12 3 12 C2.67 12.66 2.34 13.32 2 14 C0.66416101 9.15758367 -0.25328119 5.06562383 0 0 Z " fill="#404040" transform="translate(1553,309)"/>
<path d="M0 0 C0.66 0.33 1.32 0.66 2 1 C-2.95 4.63 -7.9 8.26 -13 12 C-13.66 11.67 -14.32 11.34 -15 11 C-13.8553125 10.1646875 -13.8553125 10.1646875 -12.6875 9.3125 C-10.03859112 7.03320631 -8.61711178 5.06400128 -7 2 C-6.01 2.33 -5.02 2.66 -4 3 C-1.80961577 1.62831762 -1.80961577 1.62831762 0 0 Z " fill="#8F8F8F" transform="translate(314,384)"/>
<path d="M0 0 C2.0625 0.4375 2.0625 0.4375 4 1 C4 3.31 4 5.62 4 8 C2.02 8 0.04 8 -2 8 C-1.625 6.0625 -1.625 6.0625 -1 4 C-0.34 3.67 0.32 3.34 1 3 C0.34 2.34 -0.32 1.68 -1 1 C-0.67 0.67 -0.34 0.34 0 0 Z " fill="#D3D3D3" transform="translate(949,92)"/>
<path d="M0 0 C2.0625 0.4375 2.0625 0.4375 4 1 C4 2.98 4 4.96 4 7 C2.0625 7.5625 2.0625 7.5625 0 8 C-1 7 -1 7 -1.125 4 C-1 1 -1 1 0 0 Z " fill="#DCDCDC" transform="translate(1217,48)"/>
<path d="M0 0 C2.0625 0.4375 2.0625 0.4375 4 1 C4 3.31 4 5.62 4 8 C2.35 8 0.7 8 -1 8 C-1.04241723 5.66705225 -1.04092937 3.33297433 -1 1 C-0.67 0.67 -0.34 0.34 0 0 Z " fill="#D8D8D8" transform="translate(1117,48)"/>
<path d="M0 0 C1.98 0 3.96 0 6 0 C6 1.98 6 3.96 6 6 C4.02 6 2.04 6 0 6 C0 4.02 0 2.04 0 0 Z " fill="#7C7C7E" transform="translate(1263,44)"/>
<path d="M0 0 C2.5 1.375 2.5 1.375 5 3 C5 5 5 5 3.5 6.625 C3.005 7.07875 2.51 7.5325 2 8 C1.34 7.67 0.68 7.34 0 7 C0.33 6.34 0.66 5.68 1 5 C-1.97 5 -4.94 5 -8 5 C-8 4.34 -8 3.68 -8 3 C-5.36 2.67 -2.72 2.34 0 2 C0 1.34 0 0.68 0 0 Z " fill="#626265" transform="translate(956,39)"/>
<path d="M0 0 C0.66 0.33 1.32 0.66 2 1 C0.76736651 4.69790046 -0.20052451 4.9354846 -3.5625 6.6875 C-4.80193359 7.34298828 -4.80193359 7.34298828 -6.06640625 8.01171875 C-6.70449219 8.33785156 -7.34257812 8.66398437 -8 9 C-8.33 7.68 -8.66 6.36 -9 5 C-8.43410156 4.72285156 -7.86820313 4.44570313 -7.28515625 4.16015625 C-6.55167969 3.79792969 -5.81820312 3.43570312 -5.0625 3.0625 C-3.96615234 2.52302734 -3.96615234 2.52302734 -2.84765625 1.97265625 C-1.03750973 1.13628173 -1.03750973 1.13628173 0 0 Z " fill="#414141" transform="translate(211,452)"/>
<path d="M0 0 C0.99 0.33 1.98 0.66 3 1 C0.15820812 3.32510245 -2.72826599 5.57700599 -5.6875 7.75 C-6.26886719 8.17796875 -6.85023438 8.6059375 -7.44921875 9.046875 C-9 10 -9 10 -11 10 C-9.75330996 6.25992989 -8.31486492 5.48752843 -5.125 3.25 C-4.24070312 2.61578125 -3.35640625 1.9815625 -2.4453125 1.328125 C-1.23488281 0.67070312 -1.23488281 0.67070312 0 0 Z " fill="#2C2C2C" transform="translate(333,368)"/>
<path d="M0 0 C1.32 0.66 2.64 1.32 4 2 C4 2.99 4 3.98 4 5 C2.68 5.33 1.36 5.66 0 6 C0.99 6.66 1.98 7.32 3 8 C1.35 7.67 -0.3 7.34 -2 7 C-2.6875 5.1875 -2.6875 5.1875 -3 3 C-1.5625 1.25 -1.5625 1.25 0 0 Z " fill="#D2D2D2" transform="translate(1021,92)"/>
<path d="M0 0 C1.32 0.66 2.64 1.32 4 2 C4 2.99 4 3.98 4 5 C2.68 5.33 1.36 5.66 0 6 C0.99 6.66 1.98 7.32 3 8 C1.35 7.67 -0.3 7.34 -2 7 C-2.6875 5.1875 -2.6875 5.1875 -3 3 C-1.5625 1.25 -1.5625 1.25 0 0 Z " fill="#D2D2D2" transform="translate(743,92)"/>
<path d="M0 0 C2.125 0.375 2.125 0.375 4 1 C4 2.32 4 3.64 4 5 C2.68 5 1.36 5 0 5 C0 5.66 0 6.32 0 7 C1.32 7.33 2.64 7.66 4 8 C2.33388095 8.042721 0.66617115 8.04063832 -1 8 C-2 7 -2 7 -2.1875 4.5625 C-2 2 -2 2 0 0 Z " fill="#D3D3D3" transform="translate(1146,92)"/>
<path d="M0 0 C2.125 0.9375 2.125 0.9375 4 2 C4 3.98 4 5.96 4 8 C2.02 8 0.04 8 -2 8 C-1.625 6.0625 -1.625 6.0625 -1 4 C-0.34 3.67 0.32 3.34 1 3 C0.01 2.34 -0.98 1.68 -2 1 C-1.34 0.67 -0.68 0.34 0 0 Z " fill="#87878D" transform="translate(1863,35)"/>
<path d="M0 0 C1.98 0.99 3.96 1.98 6 3 C6 6.63 6 10.26 6 14 C5.01 14.495 5.01 14.495 4 15 C4.04125 13.906875 4.0825 12.81375 4.125 11.6875 C4.32074666 7.91107771 4.32074666 7.91107771 2 5 C1.34 5.99 0.68 6.98 0 8 C0 5.36 0 2.72 0 0 Z " fill="#4E4E51" transform="translate(705,35)"/>
<path d="M0 0 C-1.47563225 2.9512645 -3.50079352 3.06923915 -6.5625 4.125 C-7.57441406 4.47820312 -8.58632813 4.83140625 -9.62890625 5.1953125 C-10.41136719 5.46085938 -11.19382812 5.72640625 -12 6 C-12.33 5.01 -12.66 4.02 -13 3 C-11.40084119 2.30093058 -9.79544955 1.61610532 -8.1875 0.9375 C-7.29417969 0.55464844 -6.40085937 0.17179688 -5.48046875 -0.22265625 C-3 -1 -3 -1 0 0 Z " fill="#3B3B3B" transform="translate(415,162)"/>
<path d="M0 0 C0.66 0 1.32 0 2 0 C5 4.38461538 5 4.38461538 5 7 C2.36 7 -0.28 7 -3 7 C-1.125 2.25 -1.125 2.25 0 0 Z " fill="#666668" transform="translate(1269,35)"/>
<path d="M0 0 C2.0625 0.4375 2.0625 0.4375 4 1 C4 3.31 4 5.62 4 8 C2.35 8 0.7 8 -1 8 C-1 6.68 -1 5.36 -1 4 C-0.34 3.67 0.32 3.34 1 3 C0.34 2.34 -0.32 1.68 -1 1 C-0.67 0.67 -0.34 0.34 0 0 Z " fill="#D3D3D3" transform="translate(759,92)"/>
<path d="M0 0 C2.475 0.495 2.475 0.495 5 1 C5 2.98 5 4.96 5 7 C3.35 7.33 1.7 7.66 0 8 C0.99 7.67 1.98 7.34 3 7 C3 6.34 3 5.68 3 5 C2.01 5 1.02 5 0 5 C0 3.35 0 1.7 0 0 Z " fill="#D5D5D5" transform="translate(1166,48)"/>
<path d="M0 0 C1.65 0.33 3.3 0.66 5 1 C4.67 2.65 4.34 4.3 4 6 C2.35 5.67 0.7 5.34 -1 5 C-0.67 3.35 -0.34 1.7 0 0 Z " fill="#767678" transform="translate(1272,44)"/>
<path d="M0 0 C0.66 0.33 1.32 0.66 2 1 C0.76736651 4.69790046 -0.20052451 4.9354846 -3.5625 6.6875 C-4.80193359 7.34298828 -4.80193359 7.34298828 -6.06640625 8.01171875 C-6.70449219 8.33785156 -7.34257812 8.66398437 -8 9 C-6.64531705 4.12314139 -4.28324091 2.51407619 0 0 Z " fill="#3F3F3F" transform="translate(207,460)"/>
<path d="M0 0 C0.99 0.33 1.98 0.66 3 1 C-0.02272532 4.25524265 -3.25718301 6.61820737 -7 9 C-7.66 8.67 -8.32 8.34 -9 8 C-2.92207792 1.75324675 -2.92207792 1.75324675 0 0 Z " fill="#323232" transform="translate(294,395)"/>
<path d="M0 0 C1.65 0.33 3.3 0.66 5 1 C1.67149253 4.59478807 -1.98971331 7.22364768 -6 10 C-6.66 9.67 -7.32 9.34 -8 9 C-6.8553125 8.1646875 -6.8553125 8.1646875 -5.6875 7.3125 C-3.03859112 5.03320631 -1.61711178 3.06400128 0 0 Z " fill="#8E8E8E" transform="translate(284,402)"/>
<path d="M0 0 C2.0625 0.4375 2.0625 0.4375 4 1 C3.01 1.33 2.02 1.66 1 2 C1.99 2.66 2.98 3.32 4 4 C3.67 5.32 3.34 6.64 3 8 C1.68 7.67 0.36 7.34 -1 7 C-1.04254356 5.00045254 -1.04080783 2.99958364 -1 1 C-0.67 0.67 -0.34 0.34 0 0 Z " fill="#D4D4D4" transform="translate(1017,48)"/>
<path d="M0 0 C3 3 3 3 3.07421875 5.48046875 C2.94660156 6.37378906 2.81898437 7.26710938 2.6875 8.1875 C2.56761719 9.08855469 2.44773437 9.98960937 2.32421875 10.91796875 C2.21722656 11.60503906 2.11023437 12.29210937 2 13 C1.01 12.34 0.02 11.68 -1 11 C-0.67 7.37 -0.34 3.74 0 0 Z " fill="#525252" transform="translate(1559,400)"/>
<path d="M0 0 C1.32 0 2.64 0 4 0 C4.33 1.32 4.66 2.64 5 4 C4.34 4 3.68 4 3 4 C3 4.99 3 5.98 3 7 C2.01 7 1.02 7 0 7 C-0.38133299 5.0085944 -0.71325582 3.00720923 -1 1 C-0.67 0.67 -0.34 0.34 0 0 Z " fill="#3A3A3A" transform="translate(729,482)"/>
<path d="M0 0 C1.66611905 -0.042721 3.33382885 -0.04063832 5 0 C6 1 6 1 6.0625 4.5625 C6.041875 5.696875 6.02125 6.83125 6 8 C4.02 8 2.04 8 0 8 C1.32 6.68 2.64 5.36 4 4 C3.34 3.67 2.68 3.34 2 3 C2.66 3 3.32 3 4 3 C4 2.34 4 1.68 4 1 C2.68 0.67 1.36 0.34 0 0 Z " fill="#E8E7F9" transform="translate(1743,36)"/>
<path d="M0 0 C2.475 0.495 2.475 0.495 5 1 C5 2.65 5 4.3 5 6 C3.35 6.66 1.7 7.32 0 8 C0.185625 7.236875 0.37125 6.47375 0.5625 5.6875 C1.22819173 2.91032625 1.22819173 2.91032625 0 0 Z " fill="#A09EE8" transform="translate(1742,36)"/>
<path d="M0 0 C1.98 0 3.96 0 6 0 C6 1.98 6 3.96 6 6 C3.69 5.01 1.38 4.02 -1 3 C-0.67 2.01 -0.34 1.02 0 0 Z " fill="#726FDD" transform="translate(1727,34)"/>
<path d="M0 0 C0.66 0 1.32 0 2 0 C2.66 3.3 3.32 6.6 4 10 C3.01 10.33 2.02 10.66 1 11 C0.67 7.37 0.34 3.74 0 0 Z " fill="#343434" transform="translate(1556,321)"/>
<path d="M0 0 C0.66 0.33 1.32 0.66 2 1 C-0.625 5.875 -0.625 5.875 -4 7 C-4.99 6.34 -5.98 5.68 -7 5 C-4.69 3.35 -2.38 1.7 0 0 Z " fill="#737373" transform="translate(334,370)"/>
<path d="M0 0 C0.99 0.99 1.98 1.98 3 3 C3.33 2.01 3.66 1.02 4 0 C4.66 0 5.32 0 6 0 C5.34 2.31 4.68 4.62 4 7 C3.01 6.67 2.02 6.34 1 6 C0.67 4.02 0.34 2.04 0 0 Z " fill="#CFCFCF" transform="translate(773,93)"/>
<path d="M0 0 C1.98 0.495 1.98 0.495 4 1 C3.34 1.66 2.68 2.32 2 3 C2.66 3.33 3.32 3.66 4 4 C4 5.32 4 6.64 4 8 C2.35 8 0.7 8 -1 8 C0.32 7.67 1.64 7.34 3 7 C3 6.34 3 5.68 3 5 C1.68 4.67 0.36 4.34 -1 4 C-0.67 2.68 -0.34 1.36 0 0 Z " fill="#CDCDCD" transform="translate(788,92)"/>
<path d="M0 0 C1.65 0.33 3.3 0.66 5 1 C5 2.65 5 4.3 5 6 C4.01 6 3.02 6 2 6 C1.67 5.01 1.34 4.02 1 3 C0.67 3.99 0.34 4.98 0 6 C-1.125 2.25 -1.125 2.25 0 0 Z " fill="#F5F5F5" transform="translate(779,93)"/>
<path d="M0 0 C0.66 0 1.32 0 2 0 C2.625 2.875 2.625 2.875 3 6 C2.34 6.66 1.68 7.32 1 8 C1 7.34 1 6.68 1 6 C-0.32 5.67 -1.64 5.34 -3 5 C-1.625 2.5 -1.625 2.5 0 0 Z " fill="#CECECE" transform="translate(918,48)"/>
<path d="M0 0 C1.65 1.65 3.3 3.3 5 5 C3.35 5.33 1.7 5.66 0 6 C-0.38218767 4.34385343 -0.71395102 2.67542976 -1 1 C-0.67 0.67 -0.34 0.34 0 0 Z " fill="#C7C7C8" transform="translate(1206,37)"/>
<path d="M0 0 C0.33 0.99 0.66 1.98 1 3 C-3.5 6 -3.5 6 -8 9 C-6.4169423 4.7257442 -3.49431596 2.73468206 0 0 Z " fill="#363636" transform="translate(1517,498)"/>
<path d="M0 0 C0.33 0.66 0.66 1.32 1 2 C1.66 2.33 2.32 2.66 3 3 C2.34 5.64 1.68 8.28 1 11 C0.01 10.34 -0.98 9.68 -2 9 C-1.34 6.03 -0.68 3.06 0 0 Z " fill="#464646" transform="translate(1238,304)"/>
<path d="M0 0 C2.475 0.495 2.475 0.495 5 1 C5 2.98 5 4.96 5 7 C3.35 7.33 1.7 7.66 0 8 C0.99 7.67 1.98 7.34 3 7 C2.34 5.68 1.68 4.36 1 3 C1.66 3 2.32 3 3 3 C3 2.34 3 1.68 3 1 C2.01 0.67 1.02 0.34 0 0 Z " fill="#CECECE" transform="translate(866,48)"/>
<path d="M0 0 C0.99 0 1.98 0 3 0 C3 1.98 3 3.96 3 6 C1.02 6 -0.96 6 -3 6 C-2.34 5.34 -1.68 4.68 -1 4 C-0.3574765 1.93125966 -0.3574765 1.93125966 0 0 Z " fill="#FEFEFE" transform="translate(640,43)"/>
<path d="M0 0 C2.0625 0.4375 2.0625 0.4375 4 1 C3.01 1 2.02 1 1 1 C1 2.65 1 4.3 1 6 C2.32 6.66 3.64 7.32 5 8 C2.625 8.125 2.625 8.125 0 8 C-0.66 7.34 -1.32 6.68 -2 6 C-1.44444444 1.44444444 -1.44444444 1.44444444 0 0 Z " fill="#E0E0F7" transform="translate(1757,36)"/>
<path d="M0 0 C0.66 0.33 1.32 0.66 2 1 C1 4 1 4 -2.0625 5.6875 C-3.031875 6.120625 -4.00125 6.55375 -5 7 C-3.75023244 3.34683329 -3.32901247 2.21934164 0 0 Z " fill="#404040" transform="translate(230,439)"/>
<path d="M0 0 C0.66 0.33 1.32 0.66 2 1 C1 4 1 4 -2.0625 5.6875 C-3.031875 6.120625 -4.00125 6.55375 -5 7 C-3.75023244 3.34683329 -3.32901247 2.21934164 0 0 Z " fill="#404040" transform="translate(252,424)"/>
<path d="M0 0 C1.0326802 2.78823655 1.04509293 3.8677274 0.0625 6.75 C-0.288125 7.4925 -0.63875 8.235 -1 9 C-1.66 9 -2.32 9 -3 9 C-2.25 2.25 -2.25 2.25 0 0 Z " fill="#2C2C2C" transform="translate(1242,297)"/>
<path d="M0 0 C0.66 0 1.32 0 2 0 C2.33 0.99 2.66 1.98 3 3 C3.99 2.01 4.98 1.02 6 0 C5.67 1.98 5.34 3.96 5 6 C4.01 6.33 3.02 6.66 2 7 C1.34 4.69 0.68 2.38 0 0 Z " fill="#CDCDCD" transform="translate(733,93)"/>
<path d="M0 0 C0.66 0 1.32 0 2 0 C3.09658936 3.28976808 2.79953138 4.71303767 2 8 C2.66 8.33 3.32 8.66 4 9 C2.68 8.67 1.36 8.34 0 8 C-1.125 2.25 -1.125 2.25 0 0 Z " fill="#CCCCCC" transform="translate(1190,91)"/>
<path d="M0 0 C0.66 0 1.32 0 2 0 C2 3.3 2 6.6 2 10 C1.01 9.34 0.02 8.68 -1 8 C-1.25 4.4375 -1.25 4.4375 -1 1 C-0.67 0.67 -0.34 0.34 0 0 Z " fill="#666669" transform="translate(632,41)"/>
<path d="M0 0 C0.66 0.33 1.32 0.66 2 1 C1 4 1 4 -2.0625 5.6875 C-3.031875 6.120625 -4.00125 6.55375 -5 7 C-4.60196439 4.11424181 -4.20990931 3.17810487 -1.9375 1.25 C-1.298125 0.8375 -0.65875 0.425 0 0 Z " fill="#373737" transform="translate(1315,200)"/>
<path d="M0 0 C0.33 0.99 0.66 1.98 1 3 C-1.31 4.32 -3.62 5.64 -6 7 C-6 6.01 -6 5.02 -6 4 C-3 1.8125 -3 1.8125 0 0 Z " fill="#2E2E2E" transform="translate(305,392)"/>
<path d="M0 0 C-1.0975223 2.99324263 -1.67682892 3.84610901 -4.625 5.25 C-5.40875 5.4975 -6.1925 5.745 -7 6 C-5.52522876 2.59668175 -4.14385429 0 0 0 Z " fill="#2B2B2B" transform="translate(305,389)"/>
<path d="M0 0 C0.33 0 0.66 0 1 0 C1 2.31 1 4.62 1 7 C0.01 7.33 -0.98 7.66 -2 8 C-1.125 1.125 -1.125 1.125 0 0 Z " fill="#2C2C2C" transform="translate(1237,312)"/>
<path d="M0 0 C1.32 0 2.64 0 4 0 C3.67 1.65 3.34 3.3 3 5 C2.01 4.67 1.02 4.34 0 4 C0 2.68 0 1.36 0 0 Z " fill="#F6F6F6" transform="translate(1180,94)"/>
<path d="M0 0 C3 1 3 1 4.6875 4.0625 C5.120625 5.031875 5.55375 6.00125 6 7 C5.01 7 4.02 7 3 7 C0 2.77777778 0 2.77777778 0 0 Z " fill="#282828" transform="translate(732,486)"/>
<path d="M0 0 C0.66 0.33 1.32 0.66 2 1 C0.37660195 2.70884005 -1.29319053 4.37446717 -3 6 C-3.66 6 -4.32 6 -5 6 C-3.86695008 2.60085025 -2.87481525 1.94745549 0 0 Z " fill="#303030" transform="translate(281,404)"/>
<path d="M0 0 C-1.0975223 2.99324263 -1.67682892 3.84610901 -4.625 5.25 C-5.40875 5.4975 -6.1925 5.745 -7 6 C-5.52522876 2.59668175 -4.14385429 0 0 0 Z " fill="#2D2D2D" transform="translate(315,382)"/>
<path d="M0 0 C1.65 0 3.3 0 5 0 C5 1.32 5 2.64 5 4 C3.35 3.67 1.7 3.34 0 3 C0 2.01 0 1.02 0 0 Z " fill="#E4E4E4" transform="translate(1076,100)"/>
<path d="M0 0 C0.66 0.33 1.32 0.66 2 1 C2 3.31 2 5.62 2 8 C1.67 7.01 1.34 6.02 1 5 C-0.65 5 -2.3 5 -4 5 C-3.01 4.34 -2.02 3.68 -1 3 C-0.67 2.01 -0.34 1.02 0 0 Z " fill="#F8F8F8" transform="translate(1055,94)"/>
<path d="M0 0 C1.32 0.33 2.64 0.66 4 1 C3.67 2.32 3.34 3.64 3 5 C2.01 4.67 1.02 4.34 0 4 C0 2.68 0 1.36 0 0 Z " fill="#FAFAFA" transform="translate(1204,94)"/>
<path d="M0 0 C1.32 0.33 2.64 0.66 4 1 C3.67 2.32 3.34 3.64 3 5 C2.01 4.67 1.02 4.34 0 4 C0 2.68 0 1.36 0 0 Z " fill="#FAFAFA" transform="translate(1196,94)"/>
<path d="M0 0 C0.99 0 1.98 0 3 0 C2.67 1.65 2.34 3.3 2 5 C1.01 4.67 0.02 4.34 -1 4 C-0.67 2.68 -0.34 1.36 0 0 Z " fill="#F9F9F9" transform="translate(1031,94)"/>
<path d="M0 0 C1.32 0.33 2.64 0.66 4 1 C3.67 2.32 3.34 3.64 3 5 C2.01 4.67 1.02 4.34 0 4 C0 2.68 0 1.36 0 0 Z " fill="#FAFAFA" transform="translate(727,94)"/>
<path d="M0 0 C2.64 0.66 5.28 1.32 8 2 C7.01 2.495 7.01 2.495 6 3 C6 3.66 6 4.32 6 5 C4 4 2 3 0 2 C0 1.34 0 0.68 0 0 Z " fill="#606063" transform="translate(1151,41)"/>
<path d="M0 0 C1.32 0.33 2.64 0.66 4 1 C4.33 2.32 4.66 3.64 5 5 C3.68 4.67 2.36 4.34 1 4 C0.67 2.68 0.34 1.36 0 0 Z " fill="#949496" transform="translate(1056,36)"/>
<path d="M0 0 C0.66 0.33 1.32 0.66 2 1 C-0.31 3.31 -2.62 5.62 -5 8 C-5 5 -5 5 -2.5 2.3125 C-1.675 1.549375 -0.85 0.78625 0 0 Z " fill="#8380E1" transform="translate(1716,15)"/>
</svg>
